<svg style="display: none;" aria-hidden="true"><defs/><symbol id="symbol-anchor" viewBox="0 0 24 24" aria-label="Anchor" role="img"><circle cx="12" cy="5" r="3"/><line x1="12" y1="22" x2="12" y2="8"/><path d="M5 12H2a10 10 0 0 0 20 0h-3"/></symbol><symbol id="symbol-date" viewBox="0 0 24 24" aria-label="Date" role="img"><rect x="3" y="4" width="18" height="18" rx="2" ry="2"/><line x1="16" y1="2" x2="16" y2="6"/><line x1="8" y1="2" x2="8" y2="6"/><line x1="3" y1="10" x2="21" y2="10"/></symbol><symbol id="symbol-info" viewBox="0 0 24 24" aria-label="Info" role="img"><circle cx="12" cy="12" r="10"/><line x1="12" y1="16" x2="12" y2="12"/><line x1="12" y1="8" x2="12.01" y2="8"/></symbol><symbol id="symbol-location" viewBox="0 0 24 24" aria-label="Location" role="img"><path d="M21 10c0 7-9 13-9 13s-9-6-9-13a9 9 0 0 1 18 0z"/><circle cx="12" cy="10" r="3"/></symbol><symbol id="symbol-feeds" viewBox="0 0 24 24" aria-label="Feeds" role="img"><path d="M4 11a9 9 0 0 1 9 9"/><path d="M4 4a16 16 0 0 1 16 16"/><circle cx="5" cy="19" r="1"/></symbol><symbol id="symbol-search" viewBox="0 0 24 24" aria-label="Search" role="img"><circle cx="11" cy="11" r="8"/><line x1="21" y1="21" x2="16.65" y2="16.65"/></symbol><symbol id="symbol-tags" viewBox="0 0 24 24" aria-label="Tag" role="img"><path d="M20.59 13.41l-7.17 7.17a2 2 0 0 1-2.83 0L2 12V2h10l8.59 8.59a2 2 0 0 1 0 2.82z"/><line x1="7" y1="7" x2="7.01" y2="7"/></symbol><symbol id="symbol-twitter" viewBox="0 0 24 24" aria-label="Twitter" role="img"><path d="M23 3a10.9 10.9 0 0 1-3.14 1.53 4.48 4.48 0 0 0-7.86 3v1A10.66 10.66 0 0 1 3 4s-4 9 5 13a11.64 11.64 0 0 1-7 2c9 5 20 0 20-11.5a4.5 4.5 0 0 0-.08-.83A7.72 7.72 0 0 0 23 3z"/></symbol><symbol id="symbol-flickr" viewBox="0 0 24 24" role="img" aria-label="Flickr"><title>Flickr icon</title><path d="M5.334 6.666C2.3884 6.666 0 9.055 0 12c0 2.9456 2.3884 5.334 5.334 5.334 2.9456 0 5.332-2.3884 5.332-5.334 0-2.945-2.3864-5.334-5.332-5.334zm13.332 0c-2.9456 0-5.332 2.389-5.332 5.334 0 2.9456 2.3864 5.334 5.332 5.334C21.6116 17.334 24 14.9456 24 12c0-2.945-2.3884-5.334-5.334-5.334Z"/></symbol></svg>