<svg xmlns="http://www.w3.org/2000/svg" xmlns:xlink="http://www.w3.org/1999/xlink"><defs><style>#hoizey,#nicolas{fill:#fff}#photography{fill:#a081c0}#wide{visibility:hidden}@media all and (min-aspect-ratio:5/1){#wide{visibility:visible}#square{visibility:hidden}}</style></defs><symbol id="nicolas" viewBox="0 0 30 9"><path aria-label="Nicolas" d="M29.02 7.03q0 .78-.39 1.21-.37.43-1.05.43-.61 0-1.03-.31-.42-.32-.55-.8-.02-.07.03-.12.03-.06.1 0 .39.45.71.65.33.21.72.21.35 0 .63-.28t.28-.88q0-.65-.15-1.22t-.38-1.01q-.19-.45-.43-.78l-.36-.52q-.02.26-.1.59-.08.33-.11.54-.02.09-.05.12-.01.02-.05.02l-.1-.02q-.02-.02 0-.07l.12-.63.14-.78q0-.04.05-.07.07-.03.11-.03.07 0 .15.09.1.07.2.18.58.64 1.04 1.55.47.88.47 1.93zm-5.93-3.38q-.51 0-.84.88-.31.86-.31 2.82 0 .4.14.68.15.28.47.28.33 0 .64-.43t.54-1.03q.24-.59.39-1.23.15-.63.15-1.06 0-.43-.32-.67-.33-.23-.85-.23zm1.97 5.01q-.39 0-.66-.24t-.27-.7l.07-1.41q-.11.47-.26.89-.15.42-.31.75-.17.32-.41.52-.21.19-.5.19-.52 0-.94-.38-.44-.39-.44-1 0-2.1.4-3.01.43-.92 1.19-.92.49 0 .82.17.36.17.59.44l.08-.38q.05-.13.17-.13.15 0 .24.1.11.1.11.22 0 .28-.03.75l-.08 1.01-.06 1.13q-.03.57-.03 1.06 0 .34.12.45.15.11.29.11.25 0 .51-.36.24-.36.45-.93.21-.58.41-1.3l.34-1.46q.03-.17.11-.1.08.08.06.19-.12.7-.29 1.48t-.41 1.41q-.23.64-.54 1.07-.31.41-.72.41zm-6.18-3.47v.41q.64-.91.97-1.81.35-.89.35-1.55 0-.58-.14-.77-.13-.19-.29-.19-.21 0-.39.31-.15.29-.27.83-.11.52-.17 1.23-.07.72-.07 1.55zm1.09 3.08q.29 0 .56-.36.26-.36.49-.93.25-.58.44-1.3.2-.73.36-1.46.03-.17.11-.1.08.08.07.19-.13.7-.31 1.48-.17.78-.44 1.41-.25.64-.58 1.07-.33.41-.77.41-.85 0-1.24-.93t-.37-3.05q0-.84.1-1.53.1-.68.29-1.17.19-.49.49-.76t.61-.26q.47 0 .68.29.22.29.22.84 0 1.03-.52 1.97-.5.94-1.26 1.8.04 1.22.29 1.81.24.57.79.57zm-4.58.1q.49 0 .75-.44.27-.43.39-1.21-.1-.04-.15-.1-.03-.05-.03-.11 0-.07.05-.15.05-.07.15-.12l.01-.37.02-.39q0-1.12-.28-1.52-.26-.39-.74-.39-.38 0-.62.22-.23.23-.38.63-.14.39-.19.94-.05.55-.05 1.21 0 .78.26 1.26.26.5.81.5zm.06.29q-.97 0-1.35-.6-.35-.61-.35-1.65 0-.62.08-1.18.1-.56.29-.99.21-.43.55-.67.36-.24.88-.24.8 0 1.19.54.39.54.39 1.89l-.02.39-.01.36q.35-.07.61-.28.27-.21.46-.53.19-.3.31-.68.12-.39.18-.8l.01-.06q.02-.04.04-.04.06 0 .1.06.04.04.02.12-.04.34-.15.77-.1.41-.32.78-.19.36-.53.63-.31.26-.77.3-.12.9-.53 1.41-.4.49-1.09.49zm-4.27-.36q.47 0 .93-.36.49-.36.88-.92.41-.58.72-1.31t.46-1.5l.04-.07q.01-.04.03-.04.05 0 .08.05.03.04.03.1 0 .13-.19.84-.19.7-.58 1.49-.37.8-.94 1.45-.58.63-1.34.63-1.06 0-1.5-.43t-.44-1.31q0-1.88.43-2.72.43-.88 1.31-.88.67 0 1.01.46.34.44.34 1.63 0 .14-.15.23-.14.1-.24.1-.08 0-.14-.03-.05-.05-.05-.13 0-.58-.03-.96-.04-.38-.13-.59-.08-.21-.22-.29-.14-.1-.37-.1-.58 0-.88.73-.27.72-.27 2.52 0 .79.36 1.11.35.31.84.31zm-3.4-5.74q-.19 0-.32-.12-.1-.12-.1-.26 0-.19.14-.32t.34-.13q.23 0 .32.13.1.13.1.23 0 .22-.14.34-.13.13-.33.13zm.48 5.7q.24 0 .47-.36.21-.36.4-.93.2-.58.38-1.3l.32-1.46.03-.08q.01-.03.04-.03.06 0 .1.06.02.06 0 .15l-.27 1.48q-.15.78-.37 1.41t-.52 1.07q-.28.41-.65.41-.41 0-.68-.28-.27-.27-.27-.8l.02-.78.06-1.23.08-1.22q.07-.58.12-.8.01-.08.04-.12.05-.05.12-.06.06 0 .14.06.1.05.1.18 0 .92-.02 1.58v1.11q0 .46-.02.74v.48q0 .44.13.58.15.15.28.15zm-7.29.06V5.33l.04-1.43.06-1.22q.03-.54.07-.78.01-.08.04-.12.04-.05.15-.05.11 0 .23.05.13.04.19.15.24.33.68 1.07.43.75.9 1.64.51.89 1 1.84.51.93.88 1.65l-.07-2.18-.03-1.94q0-.86-.02-1.44v-.72q0-.1.03-.15t.13-.04q.13 0 .25.08.14.09.15.25l.01.57.02.73-.02 1.46q-.01.81-.05 1.55-.01.75-.04 1.33l-.05.77q-.02.1-.07.15-.04.05-.12.05-.12 0-.27-.04-.15-.04-.21-.15l-.67-1.17-.89-1.62-.97-1.8-.88-1.67.03 1.65q.04.96.05 1.9l.03 1.68.02.98q0 .11-.05.15-.05.07-.13.07-.1 0-.26-.08-.15-.07-.17-.22z"/></symbol><symbol id="hoizey" viewBox="0 0 30 9"><path aria-label="Hoizey" d="M25.58 9.86q-.87 0-1.34-.21-.47-.21-.47-.71 0-.23.1-.42.12-.18.4-.36.29-.17.79-.34.5-.18 1.27-.38v-.92q-.27.6-.67.82-.39.21-.89.21-.77 0-1-.6-.22-.61-.22-1.63 0-.54.04-1.07.05-.55.15-.94.04-.14.13-.22.12-.08.32-.08.43 0 .75.22.33.22.33.48 0 .6-.05 1.2t-.04.96q0 .13.05.19t.13.06q.19 0 .38-.22t.34-.57q.16-.36.27-.8.12-.46.13-.9.01-.29.1-.41t.25-.12q.43 0 .65.18.23.17.25.38l.04.57.04.7.03.79.01.82q.19-.21.33-.42.14-.22.23-.47.02-.05.06-.08t.09-.03q.13 0 .31.16t.17.34q0 .64-.37 1.05-.36.41-.83.65-.1 1.14-.59 1.63-.48.48-1.66.48zm.1-.81q.32 0 .48-.14.16-.12.18-.62-.57.19-.8.29-.22.12-.22.25 0 .1.1.16t.28.07zm-4.5-4.97q-.35 0-.62.4-.26.39-.26.96.67-.27.92-.55.26-.29.26-.51 0-.15-.08-.23-.07-.09-.22-.09zm.16 2.77q.53 0 .92-.27.41-.29.72-.72.33-.45.57-.98.25-.54.46-1.05.02-.06.06-.08.05-.03.1-.03.13 0 .29.16.18.15.18.33 0 .48-.22 1.18-.21.69-.67 1.32-.43.61-1.11 1.05-.67.45-1.58.45-.64 0-1.08-.19-.42-.19-.7-.51-.27-.33-.38-.77-.13-.43-.13-.91 0-.6.18-1.15.18-.53.5-.92t.77-.6q.45-.22.96-.22.73 0 1.16.37.43.38.43.98 0 .32-.15.64t-.44.57q-.29.25-.74.41t-1.05.17q.13.38.38.56t.57.18zm-4.51 1.34h-.31q-.9 0-1.37-.11-.46-.12-.46-.34 0-.32.03-.55t.17-.36q.52-.43.96-.9.44-.49.76-1.13-.52.1-.97.12l-.62.03q-.19 0-.32-.15-.11-.16-.18-.36-.05-.2-.08-.42l-.02-.31q0-.48.17-.57.18-.12.61-.12h.42l.57.02.69.03.73.03q.24.01.38.23.16.22.16.56 0 .18-.03.4-.02.21-.19.56-.15.33-.51.84t-1 1.25q.36-.02.7-.12.33-.12.63-.31.56-.35.99-1.02.44-.68.81-1.63.02-.06.07-.08.04-.03.1-.03.16 0 .33.16.16.15.13.33-.3 1.05-.73 1.92-.42.87-.99 1.39-.34.32-.77.49-.4.16-.88.16zm-4.34-5.51q-.55 0-.84-.25-.28-.24-.28-.55 0-.4.33-.66.34-.26.89-.26.58 0 .81.25.24.26.24.51 0 .46-.33.71-.33.26-.83.26zm.79 3.92q.18 0 .36-.27.19-.28.37-.68t.35-.89.32-.93q.03-.06.07-.08.05-.03.1-.03.13 0 .29.16.18.16.18.34 0 .48-.19 1.17-.18.69-.52 1.31-.34.63-.82 1.07-.47.44-1.05.44-.86 0-1.15-.71-.26-.72-.26-1.96 0-.88.03-1.39.03-.52.09-.79.04-.26.15-.33.12-.09.29-.09.19 0 .39.05.21.04.37.12.15.09.25.22.12.12.12.29 0 .3-.1.77-.07.47-.07 1.29 0 .47.1.69.12.21.33.21zm-4.49.26q.26 0 .38-.21.13-.23.17-.54-.25-.16-.36-.42-.1-.26-.1-.55 0-.23.07-.46t.17-.4q-.07-.05-.14-.07-.08-.04-.15-.04-.32 0-.5.38-.17.37-.17.92 0 .7.16 1.04.16.33.48.33zm-.27 1.36q-.5 0-.86-.19-.35-.19-.58-.51-.24-.33-.34-.74-.12-.44-.12-.92 0-.6.14-1.15.13-.54.38-.92t.66-.6q.39-.22.91-.22.82 0 1.34.56t.55 1.77q.37-.08.67-.41.3-.34.59-1.05.02-.06.05-.08.05-.03.1-.03.13 0 .31.16.17.15.17.33 0 .91-.53 1.51t-1.43.64q-.09.34-.23.67-.15.34-.38.6-.24.26-.58.42-.34.14-.8.14zM4.36 1.77q.01-.16.13-.27.12-.11.4-.11.13 0 .32.03.19.02.36.06.18.04.3.12.14.07.16.17.08.34.1 1.24t-.02 1.85q-.02.96-.07 1.8l-.05 1.03q-.02.25-.13.38-.1.12-.41.12-.4 0-.71-.08-.32-.09-.34-.29l-.06-.71q-.04-.55-.04-1.27l-.53.07-.64.08-.05 1.07-.04.61q-.03.26-.13.38-.1.13-.42.13-.39 0-.71-.08-.31-.09-.33-.29-.03-.15-.06-.63l-.03-1.13q-.17-.11-.31-.36-.12-.26-.12-.48 0-.11.03-.19.04-.07.1-.08l.12-.02.13-.03V3.17q.03-.86.07-1.44.01-.16.13-.27.11-.1.4-.1l.32.02q.19.02.36.06.18.05.31.12.14.07.16.17l.06.48.03.72.01.86v.94q.33 0 .61-.02h.5V3.08q.02-.8.06-1.35z"/></symbol><symbol id="photography" viewBox="0 0 30 9"><path aria-label="photography" d="M27.33 8.24q-.3 0-.53-.14-.24-.12-.24-.39 0-.17.12-.31.12-.14.32-.3.19-.14.46-.3.27-.17.53-.38V4.57l-.13.7q-.08.36-.19.64-.1.28-.24.46-.12.17-.31.17-.28 0-.52-.3-.25-.3-.25-.79 0-.63.04-1.27t.1-1.09l.04-.15q.03-.06.08-.06t.1.07q.08.07.08.2l-.02.4q0 .28-.03.61l-.02.7-.01.67q0 .3.08.52.08.22.26.22.19 0 .35-.3.17-.3.28-.74.14-.44.23-.91.1-.49.12-.86.01-.28.03-.4.03-.12.11-.12.1 0 .13.08.05.07.05.17v.59l-.02.79-.01.88-.01.84q.19-.19.35-.43.18-.24.3-.62h.01l.02-.01.05.02q.03.03.03.06 0 .33-.25.69-.25.34-.51.5-.02.8-.22 1.29-.19.5-.75.5zm.03-.25q.32 0 .47-.41.15-.39.16-.98-.52.37-.84.62-.31.26-.31.47 0 .11.11.21t.4.1zm-3.78-6.9q0-.07.03-.1.02-.04.06-.05.04 0 .08.05.06.04.06.14L23.8 2.7l-.01 1.37-.02 1.13q0 .49-.02.82l.21-1.18q.12-.59.28-1.05.17-.45.38-.71.23-.28.52-.28.24 0 .32.18.1.17.1.47 0 .25-.03.57l-.07.69-.07.7q-.03.36-.03.69 0 .34.07.46.09.11.16.11.14 0 .28-.28t.26-.73q.11-.46.22-1.02l.19-1.14.02-.07.02-.03q.03 0 .05.04l.01.09q0 .1-.07.65t-.21 1.18q-.13.62-.34 1.12-.2.5-.47.5-.22 0-.38-.22-.15-.22-.15-.63 0-.72.1-1.45t.1-1.31q0-.14-.03-.21-.04-.08-.12-.08-.21 0-.42.38-.19.4-.36.96-.17.57-.28 1.22-.11.66-.16 1.18 0 .05-.05.08t-.1.03q-.1 0-.16-.08-.06-.07-.07-.24l-.01-1.05.02-1.71q0-.89.03-1.69.03-.81.08-1.06zm-1.79 5.64q.28 0 .46-.69.19-.69.19-2.22 0-.33-.11-.54-.1-.21-.28-.21t-.33.34q-.17.33-.3.8-.12.46-.21.96-.08.49-.08.81v.04q.01.34.19.52t.47.18zm-.62 1.08q0 .23-.04.3-.04.08-.1.08-.1 0-.15-.1-.07-.1-.08-.3V4.58l.02-.7.02-.63q0-.23.04-.28.03-.08.07-.08.04 0 .11.1t.07.28v1.59q.06-.38.15-.76.09-.36.19-.65.11-.28.25-.47.15-.18.33-.18.27 0 .48.31.23.28.23.78 0 1.01-.1 1.66t-.26 1q.22-.19.41-.52.2-.33.36-.73.16-.41.28-.88.13-.47.19-.94.03-.13.07-.07.05.06.04.14-.07.55-.22 1.16-.14.61-.38 1.1-.22.5-.54.82-.31.32-.72.32h-.03q-.25 0-.43-.11-.19-.11-.31-.28l.03.67v.57zm-2.3-4.75q-.28 0-.47.69-.17.68-.17 2.21 0 .31.08.53t.27.22q.18 0 .35-.33t.3-.8q.14-.47.22-.97.09-.49.09-.83t-.19-.52q-.17-.19-.47-.19zm1.11 3.92q-.22 0-.38-.19-.15-.19-.14-.54l.04-1.1-.15.7q-.08.32-.17.58-.1.26-.23.41-.12.15-.28.15-.28 0-.53-.3-.24-.3-.24-.79 0-1.64.22-2.35.24-.73.67-.73.27 0 .46.14.2.13.33.34l.05-.29q.02-.1.1-.1.09 0 .13.07.07.08.07.18l-.02.59-.05.79-.03.88-.02.83q0 .27.07.36.08.08.16.08.14 0 .28-.28.13-.28.25-.73.12-.45.23-1.02l.19-1.14q.02-.13.06-.08.05.06.04.14l-.16 1.17q-.1.6-.23 1.1-.13.49-.3.83-.17.32-.4.32zm-2.79-.31q.14 0 .28-.28.13-.28.25-.72.12-.46.23-1.02l.19-1.14q.02-.14.07-.09.04.06.03.15l-.16 1.16q-.1.61-.23 1.1-.13.49-.3.83-.17.32-.4.32-.25 0-.4-.19-.14-.19-.14-.4 0-.27.03-.67l.07-.86.07-.91q.03-.47.03-.86h-.61l-.06.44-.04.39q-.01.07-.03.1l-.03.01q-.03 0-.05-.02-.02-.01-.01-.06l.04-.36.07-.48h-.1q-.21 0-.28-.09-.06-.08-.06-.13 0-.04.04-.06t.1-.03.19.01l.28.03q.16 0 .34.03l.34.04q.1.02.14.06.05.05.05.16 0 .3-.03.73l-.06.89-.06.88q-.03.42-.03.69 0 .14.06.24.08.1.18.1zm-3.38-.41q.15 0 .31-.24.15-.25.28-.6.12-.35.21-.75.1-.4.11-.7v-.21q0-.33-.19-.51-.17-.18-.47-.18-.28 0-.47.57-.17.56-.17 1.81 0 .35.08.59.1.23.29.23zm.26 2q-.31 0-.54-.14-.24-.13-.24-.39 0-.16.11-.31.11-.13.3-.28.19-.14.45-.3.25-.16.51-.36v-.5l.01-.64.01-.24-.15.55q-.08.27-.19.47-.1.19-.23.31t-.28.12q-.27 0-.5-.3-.23-.32-.23-.83 0-1.38.23-1.99.23-.61.67-.61.27 0 .46.12t.3.32q0-.24.02-.3t.06-.07q.07 0 .1.06.04.05.05.13.02.41.01 1.17v1.9q.38-.53.65-1.12.27-.6.41-1.54l.02-.06q0-.03.02-.03t.04.04q.02.03.02.08 0 .21-.08.57-.08.35-.23.76-.14.4-.36.82-.21.42-.48.71v.28q0 .7-.19 1.14-.17.44-.72.44zm.02-.26q.29 0 .44-.31.14-.31.14-.76v-.27q-.5.35-.8.59-.28.25-.28.45 0 .12.1.21.11.1.4.1zm-2.57-1.25q.27 0 .42-.33.15-.34.22-.95-.06-.03-.09-.07l-.01-.1.02-.11q.03-.05.1-.09v-.28l.01-.31q0-.88-.15-1.18-.15-.3-.42-.3-.21 0-.35.18-.12.17-.2.48-.09.31-.11.74-.03.44-.03.95 0 .6.14.99.15.38.46.38zm.04.24q-.55 0-.76-.47-.19-.47-.19-1.29 0-.49.04-.92.05-.45.16-.78.12-.32.31-.52.19-.19.49-.19.45 0 .67.43.21.42.21 1.47v.3l-.02.28q.21-.05.35-.22t.26-.41q.1-.25.17-.54.07-.3.1-.62l.02-.05.01-.03q.04 0 .06.04.03.04.02.1-.03.27-.1.6-.06.32-.18.62-.1.28-.28.48-.18.21-.44.25-.07.7-.28 1.08-.23.38-.62.38zm-2.44-.84.01-2.04q.02-.82.05-1.29h-.15q-.1 0-.19-.05t-.09-.1q0-.04.13-.06t.31-.04q.03-.34.07-.47.04-.15.08-.15.07 0 .11.09.06.07.06.14v.19l-.01.19h.43q.13 0 .21.06.07.06.07.1l-.02.03q0 .02-.03.03l-.24.01-.42.02-.03 1.3q-.02.8-.02 2.01 0 .35.08.46t.16.11q.23 0 .4-.28.19-.28.32-.73.13-.45.24-1.02l.2-1.14q.02-.13.07-.08.04.06.03.15l-.17 1.16q-.1.61-.25 1.1-.15.49-.37.83-.22.32-.51.32-.22 0-.38-.22-.14-.22-.14-.63zm-1.75.6q.27 0 .41-.33.16-.34.22-.95-.05-.03-.08-.07l-.02-.1q0-.06.03-.11t.1-.09v-.28l.01-.31q0-.88-.15-1.18-.15-.3-.42-.3-.21 0-.35.18-.13.17-.21.48-.08.31-.11.74-.02.44-.02.95 0 .6.14.99.15.38.46.38zm.03.24q-.54 0-.76-.47-.19-.47-.19-1.29 0-.49.04-.92.06-.45.17-.78.11-.32.31-.52.19-.19.49-.19.44 0 .67.43.21.42.21 1.47v.3l-.02.28q.2-.05.35-.22.14-.17.25-.41.11-.25.18-.54.07-.3.1-.62l.01-.05.02-.03q.04 0 .06.04.02.04.02.1-.03.27-.1.6-.06.32-.18.62-.11.28-.29.48-.17.21-.43.25-.07.7-.28 1.08-.24.38-.62.38zM3.71 1.11q.01-.07.03-.1.03-.04.06-.05.04 0 .09.05.05.04.05.14v1.57q0 .75-.02 1.37t-.01 1.14l-.02.82q.09-.6.21-1.18.11-.59.28-1.04.16-.45.38-.72.23-.28.52-.28.23 0 .32.18.1.17.1.47 0 .25-.04.57l-.06.69-.08.71-.02.67q0 .35.07.47.08.11.15.11.15 0 .28-.28.14-.28.26-.73.12-.45.23-1.02l.19-1.14q0-.04.02-.06l.01-.04q.03 0 .05.04.02.04.02.09 0 .1-.07.66-.08.54-.21 1.17-.13.62-.34 1.12-.21.5-.47.5-.23 0-.38-.22t-.15-.63q0-.72.1-1.45t.1-1.31q0-.13-.03-.21-.03-.08-.12-.08-.21 0-.41.39-.2.38-.37.95-.16.57-.28 1.23-.11.65-.15 1.17-.01.05-.06.08-.04.03-.1.03-.1 0-.15-.08-.07-.07-.08-.24V5.59l.01-1.71q.01-.89.04-1.69.03-.8.07-1.06zM1.92 6.75q.28 0 .47-.68.18-.69.18-2.23 0-.33-.1-.54-.1-.21-.28-.21t-.33.34q-.16.33-.29.8-.13.46-.21.96-.08.49-.08.81v.04q0 .34.18.52.19.18.47.18zM1.3 7.83q0 .23-.03.3-.04.08-.1.08-.1 0-.16-.1t-.07-.3l-.01-.22V4.6l.03-.71.01-.63q.01-.23.04-.28.04-.08.07-.08.05 0 .11.1.08.1.08.28v.67l-.01.93.15-.76.19-.66q.11-.28.26-.47.14-.17.32-.17.28 0 .49.3.22.29.22.78 0 1.01-.1 1.66-.09.66-.25 1 .22-.19.41-.52.19-.32.35-.73.16-.41.28-.88.13-.47.2-.93.02-.14.07-.08.04.06.03.14-.07.56-.22 1.17-.13.6-.37 1.09-.23.5-.55.83-.3.31-.71.31h-.05q-.25 0-.43-.1-.18-.12-.31-.3l.03.67.01.59z"/></symbol><svg id="wide" viewBox="0 0 90 11" preserveAspectRatio="xMinYMid meet"><use xlink:href="#nicolas" width="30" height="10"/><use xlink:href="#hoizey" width="30" height="11" x="31"/><use xlink:href="#photography" width="30" height="10" x="62" y="1.5"/></svg><svg id="square" viewBox="0 0 30 30" preserveAspectRatio="xMidYMin meet"><use xlink:href="#nicolas" width="30" y="-9"/><use xlink:href="#hoizey" width="30"/><use xlink:href="#photography" width="30" y="9"/></svg></svg>