<?xml version="1.0" encoding="UTF-8"?><!DOCTYPE svg PUBLIC "-//W3C//DTD SVG 1.1//EN" "http://www.w3.org/Graphics/SVG/1.1/DTD/svg11.dtd"><svg width="24" height="24" viewBox="0 0 24 24" vectorEffect="non-scaling-stroke" xmlns="http://www.w3.org/2000/svg" xmlns:xlink="http://www.w3.org/1999/xlink"><defs><style>
g {
  display: none;
}
g:target {
  display: inline;
  fill: none;
  stroke: #a081c0;
  stroke-width: 2px;
  stroke-linecap: round;
  stroke-linejoin: round;
}
path {
  vector-effect: non-scaling-stroke;
}
</style></defs><g id="aperture" viewBox="0 0 24 24"><circle cx="12" cy="12" r="10"/><line x1="14.31" y1="8" x2="20.05" y2="17.94"/><line x1="9.69" y1="8" x2="21.17" y2="8"/><line x1="7.38" y1="12" x2="13.12" y2="2.06"/><line x1="9.69" y1="16" x2="3.95" y2="6.06"/><line x1="14.31" y1="16" x2="2.83" y2="16"/><line x1="16.62" y1="12" x2="10.88" y2="21.94"/></g><g id="download" viewBox="0 0 24 24"><path d="M21 15v4a2 2 0 0 1-2 2H5a2 2 0 0 1-2-2v-4"/><polyline points="7 10 12 15 17 10"/><line x1="12" y1="15" x2="12" y2="3"/></g><g id="feeds" viewBox="0 0 24 24"><path d="M4 11a9 9 0 0 1 9 9"/><path d="M4 4a16 16 0 0 1 16 16"/><circle cx="5" cy="19" r="1"/></g><g id="twitter" viewBox="0 0 24 24"><path d="M23 3a10.9 10.9 0 0 1-3.14 1.53 4.48 4.48 0 0 0-7.86 3v1A10.66 10.66 0 0 1 3 4s-4 9 5 13a11.64 11.64 0 0 1-7 2c9 5 20 0 20-11.5a4.5 4.5 0 0 0-.08-.83A7.72 7.72 0 0 0 23 3z"/></g><g id="blog" viewBox="0 0 24 24"><path d="M15 8h2m-2 4h2m0 4H7m0-8v4h4V8H7zM5 20h14a2 2 0 0 0 2-2V6a2 2 0 0 0-2-2H5a2 2 0 0 0-2 2v12a2 2 0 0 0 2 2z"/></g><g id="date" viewBox="0 0 24 24"><path d="M4 9v10a2 2 0 0 0 2 2h12a2 2 0 0 0 2-2V9M4 9V7a2 2 0 0 1 2-2h2M4 9h16m0 0V7a2 2 0 0 0-2-2h-2m0 0V3m0 2H8m0-2v2"/></g><g id="camera" viewBox="0 0 24 24"><path d="M3 18V9a2 2 0 0 1 2-2h.93a2 2 0 0 0 1.664-.89l.812-1.22A2 2 0 0 1 10.07 4h3.86a2 2 0 0 1 1.664.89l.812 1.22A2 2 0 0 0 18.07 7H19a2 2 0 0 1 2 2v9a2 2 0 0 1-2 2H5a2 2 0 0 1-2-2z"/><circle cx="12" cy="13" r="3"/></g><g id="urban" viewBox="0 0 24 24"><path d="M7 9V6a2 2 0 0 1 2-2h10a2 2 0 0 1 2 2v12a2 2 0 0 1-2 2h-6m0 0v-6.172a2 2 0 0 0-.586-1.414l-3-3a2 2 0 0 0-2.828 0l-3 3A2 2 0 0 0 3 13.828V18a2 2 0 0 0 2 2h3m5 0H8m0-4v4m9.001-12H17m-3.999 0H13m4.001 4H17m.001 4H17"/></g><g id="nature" viewBox="0 0 24 24"><path d="M12 13c-4 0-5-3.333-5-5V4l2.5 2L12 3l2.5 3L17 4v4c0 1.667-1 5-5 5zm0 0v8m1 0c5.6 0 7-4.667 7-7-5.6 0-7 4.667-7 7zm0 0h-1m-1 0c-5.6 0-7-4.667-7-7 5.6 0 7 4.667 7 7zm0 0h1"/></g><g id="folder" viewBox="0 0 24 24"><path d="M3 6a2 2 0 0 1 2-2h3.93a2 2 0 0 1 1.664.89l.812 1.22A2 2 0 0 0 13.07 7H19a2 2 0 0 1 2 2v9a2 2 0 0 1-2 2H5a2 2 0 0 1-2-2V6z"/></g><g id="travels" viewBox="0 0 24 24"><circle cx="12" cy="12" r="9"/><path d="M16 4v0a2 2 0 0 1-2 2h-.5A1.5 1.5 0 0 0 12 7.5V8a1 1 0 0 1-1 1v0a1 1 0 0 0-1 1v1a2 2 0 0 0 2 2h2a2 2 0 0 1 2 2v0a2 2 0 0 0 2 2h1m-8 4v-2.5c0-.828-.685-1.5-1.513-1.5v0C8.673 17 8 16.34 8 15.526v0c0-.34-.118-.67-.333-.933L3.5 9.5"/></g><g id="like" viewBox="0 0 24 24"><path d="M17 4c-3.2 0-5 2.667-5 4 0-1.333-1.8-4-5-4S3 6.667 3 8c0 7 9 12 9 12s9-5 9-12c0-1.333-.8-4-4-4z"/></g><g id="home" viewBox="0 0 24 24"><path d="M20 19v-8.5a1 1 0 0 0-.4-.8l-7-5.25a1 1 0 0 0-1.2 0l-7 5.25a1 1 0 0 0-.4.8V19a1 1 0 0 0 1 1h4a1 1 0 0 0 1-1v-3a1 1 0 0 1 1-1h2a1 1 0 0 1 1 1v3a1 1 0 0 0 1 1h4a1 1 0 0 0 1-1z"/></g><g id="portraits" viewBox="0 0 24 24"><path d="M3 11h2m16.5 0H19m0 0V6a2 2 0 0 0-2-2H7a2 2 0 0 0-2 2v5m14 0H5"/><circle cx="7" cy="17" r="3"/><circle cx="17" cy="17" r="3"/><path d="M10 16h4"/></g><g id="info" viewBox="0 0 24 24"><circle cx="12" cy="12" r="9"/><path d="M12 15v-3m0-3v0"/></g><g id="contact" viewBox="0 0 24 24"><path d="m7 9 3.75 3a2 2 0 0 0 2.5 0L17 9m4 8V7a2 2 0 0 0-2-2H5a2 2 0 0 0-2 2v10a2 2 0 0 0 2 2h14a2 2 0 0 0 2-2z"/></g><g id="map" viewBox="0 0 24 24"><path d="M21 9V4l-6 4-6-4-6 4v12l6-4 1 .667"/><path d="M21 15c0 2.611-4 6-4 6s-4-3.389-4-6 1.79-4 4-4 4 1.389 4 4zm-4 .001V15"/></g><g id="misc" viewBox="0 0 24 24"><path d="M16.75 6H20a1 1 0 0 1 1 1v3.25a.75.75 0 0 1-.75.75H20a2 2 0 1 0 0 4h.25a.75.75 0 0 1 .75.75V20a1 1 0 0 1-1 1h-3.25a.75.75 0 0 1-.75-.75V20a2 2 0 1 0-4 0v.25a.75.75 0 0 1-.75.75H7a1 1 0 0 1-1-1v-4.25a.75.75 0 0 0-.75-.75H5a2 2 0 1 1 0-4h.25a.75.75 0 0 0 .75-.75V7a1 1 0 0 1 1-1h4.25a.75.75 0 0 0 .75-.75V5a2 2 0 1 1 4 0v.25c0 .414.336.75.75.75z"/></g><g id="share" viewBox="0 0 24 24"><path d="m20 12-6.4-7v3.5C10.4 8.5 4 10.6 4 19c0-1.167 1.92-3.5 9.6-3.5V19l6.4-7z"/></g><g id="tag" viewBox="0 0 24 24"><path d="M3 11.172V5a2 2 0 0 1 2-2h6.172a2 2 0 0 1 1.414.586l8 8a2 2 0 0 1 0 2.828l-6.172 6.172a2 2 0 0 1-2.828 0l-8-8A2 2 0 0 1 3 11.172zM7 7h.001"/></g><g id="focal_length" viewBox="0 0 24 24"><path d="m16.588 3 .5.866m3.5 6.062-.5-.866m-3-5.196-6.062 3.5a1 1 0 0 0-.366 1.366v0m6.428-4.866 3 5.196m0 0-6.062 3.5a1 1 0 0 1-1.366-.366v0m-2-3.464-5.196 3a1 1 0 0 0-.366 1.366v0m5.562-4.366 2 3.464m0 0-3.03 1.75m-4.532-.848-1.732 1A1 1 0 0 0 3 15.464v0a1 1 0 0 0 1.366.366l1.732-1m-1-1.732 1 1.732m0 0v0a1 1 0 0 0 1.366.366l2.165-1.25m0 0L13 20m-3.37-6.054L7.097 20"/></g><g id="shutter_speed" viewBox="0 0 24 24"><path d="m19 7-1.343 1.343m0 0A8 8 0 1 0 6.343 19.657 8 8 0 0 0 17.657 8.343zM12 10v4M9 3h6"/></g><g id="eleventy" viewBox="0 0 24 24" role="img"><title>Eleventy</title><path d="M3.398 12V0h17.204v24H3.398zm13.17 6.07a1.07 1.07 0 00.373-.107c.432-.213.68-.672.877-1.626.076-.372 1.195-6.168 1.209-6.263.026-.186-.008-.382-.084-.476a.325.325 0 00-.087-.064l-.06-.031h-.291c-.253 0-.298 0-.348.02-.113.039-.207.156-.255.316-.011.038-.168.881-.348 1.873l-.328 1.802-.046-.21c-.56-2.547-.764-3.452-.794-3.532a.383.383 0 00-.103-.16c-.105-.107-.117-.11-.567-.11-.411 0-.422 0-.5.074-.086.079-.122.216-.111.42.006.115.045.27.688 2.784.663 2.587.751 2.943.787 3.177.046.3-.05.713-.208.893-.032.037-.037.039-.084.032-.028 0-.12-.027-.204-.051-.268-.078-.362-.072-.462.028-.096.096-.137.248-.138.51 0 .256.028.34.159.473.131.133.324.208.595.23.164.012.22.012.33-.001zm-1.896-1.712a.31.31 0 00.16-.192c.02-.058.022-.098.022-.356 0-.255-.003-.299-.021-.354-.04-.121-.136-.196-.278-.217-.041-.01-.2-.01-.355-.01-.365-.001-.378-.01-.446-.184-.068-.18-.096-.326-.113-.602a85.799 85.799 0 01-.012-1.94v-1.765h.35c.454 0 .507-.01.602-.113a.465.465 0 00.102-.24 3.273 3.273 0 000-.534c-.026-.16-.099-.271-.211-.322-.057-.025-.065-.026-.45-.03h-.392l-.003-1.22c-.003-1.09-.005-1.227-.021-1.278a.378.378 0 00-.201-.247c-.052-.024-.072-.025-.32-.029-.27 0-.356 0-.429.038-.087.042-.148.133-.185.278-.014.054-.032.346-.076 1.262l-.06 1.194s-.08 0-.18.01c-.206.01-.263.022-.327.086-.092.092-.12.19-.127.455-.01.334.02.487.115.588.075.081.134.1.345.106l.173.01v1.785c0 1.7.006 2.019.034 2.274.041.37.13.709.241.928.194.38.544.617.988.668h1.005l.07-.04zm-7.447 0c.098-.053.16-.154.2-.332.016-.077.018-.401.018-4.518 0-4.184-.001-4.44-.02-4.51-.05-.194-.19-.29-.378-.26-.035.01-.344.084-.686.175-.343.09-.684.18-.758.198-.17.043-.214.062-.281.126-.105.098-.122.185-.122.606 0 .416.016.5.12.604.094.095.189.1.456.03.103-.026.193-.048.2-.048.01 0 .014.784.017 3.763.003 3.436.005 3.77.021 3.84.048.202.113.296.236.34.034.013.133.016.487.014.435 0 .445 0 .49-.027zm3.203 0c.092-.046.152-.135.197-.29l.024-.084.003-4.435c.002-3.194 0-4.456-.01-4.509-.033-.2-.145-.308-.322-.308-.066 0-.198.03-.857.204-.56.147-.799.214-.849.239a.34.34 0 00-.17.184c-.024.06-.024.071-.024.479 0 .415 0 .417.026.483a.362.362 0 00.083.12c.1.1.172.105.456.034a5.46 5.46 0 01.208-.05c.008 0 .012 1.202.014 3.791l.003 3.79.026.086a.48.48 0 00.135.23c.078.062.085.063.57.06.414 0 .447 0 .487-.024z"/></g><g id="flickr" viewBox="0 0 24 24" role="img"><title>Flickr</title><path d="M5.334 6.666C2.3884 6.666 0 9.055 0 12c0 2.9456 2.3884 5.334 5.334 5.334 2.9456 0 5.332-2.3884 5.332-5.334 0-2.945-2.3864-5.334-5.332-5.334zm13.332 0c-2.9456 0-5.332 2.389-5.332 5.334 0 2.9456 2.3864 5.334 5.332 5.334C21.6116 17.334 24 14.9456 24 12c0-2.945-2.3884-5.334-5.334-5.334Z"/></g><g id="unsplash" viewBox="0 0 24 24" role="img"><title>Unsplash</title><path d="M7.5 6.75V0h9v6.75h-9zm9 3.75H24V24H0V10.5h7.5v6.75h9V10.5z"/></g><g id="iso" viewBox="0 0 24 24">
  <path d="M21 17V7a2 2 0 00-2-2H5a2 2 0 00-2 2v10a2 2 0 002 2h14a2 2 0 002-2z"/>
  <path d="M7 10v4m5-4h-1s-1 0-1 1 1 1 1 1c1 0 1 1 1 1 0 1-1 1-1 1h-1m5-3c0-1 1-1 1-1s1 0 1 1v2c0 1-1 1-1 1s-1 0-1-1z"/>
</g></svg>