<?xml version="1.0" encoding="UTF-8"?><!DOCTYPE svg PUBLIC "-//W3C//DTD SVG 1.1//EN" "http://www.w3.org/Graphics/SVG/1.1/DTD/svg11.dtd"><svg width="24" height="24" viewBox="0 0 24 24" vectorEffect="non-scaling-stroke" xmlns="http://www.w3.org/2000/svg" xmlns:xlink="http://www.w3.org/1999/xlink"><defs><style>
g {
  display: none;
}
g:target {
  display: inline;
  fill: none;
  stroke: #835aac;
  stroke-width: 2px;
  stroke-linecap: round;
  stroke-linejoin: round;
}
path {
  vector-effect: non-scaling-stroke;
}
</style></defs><g id="aperture" viewBox="0 0 24 24"><circle cx="12" cy="12" r="10"/><line x1="14.31" y1="8" x2="20.05" y2="17.94"/><line x1="9.69" y1="8" x2="21.17" y2="8"/><line x1="7.38" y1="12" x2="13.12" y2="2.06"/><line x1="9.69" y1="16" x2="3.95" y2="6.06"/><line x1="14.31" y1="16" x2="2.83" y2="16"/><line x1="16.62" y1="12" x2="10.88" y2="21.94"/></g><g id="download" viewBox="0 0 24 24"><path d="M21 15v4a2 2 0 0 1-2 2H5a2 2 0 0 1-2-2v-4"/><polyline points="7 10 12 15 17 10"/><line x1="12" y1="15" x2="12" y2="3"/></g><g id="feeds" viewBox="0 0 24 24"><path d="M4 11a9 9 0 0 1 9 9"/><path d="M4 4a16 16 0 0 1 16 16"/><circle cx="5" cy="19" r="1"/></g><g id="twitter" viewBox="0 0 24 24"><path d="M23 3a10.9 10.9 0 0 1-3.14 1.53 4.48 4.48 0 0 0-7.86 3v1A10.66 10.66 0 0 1 3 4s-4 9 5 13a11.64 11.64 0 0 1-7 2c9 5 20 0 20-11.5a4.5 4.5 0 0 0-.08-.83A7.72 7.72 0 0 0 23 3z"/></g><g id="blog" viewBox="0 0 24 24">
  <path d="M15 8h2m-2 4h2m0 4H7m0-8v4h4V8H7zM5 20h14a2 2 0 002-2V6a2 2 0 00-2-2H5a2 2 0 00-2 2v12a2 2 0 002 2z"/>
</g><g id="date" viewBox="0 0 24 24">
  <path d="M4 9v10a2 2 0 002 2h12a2 2 0 002-2V9M4 9V7a2 2 0 012-2h2M4 9h16m0 0V7a2 2 0 00-2-2h-2m0 0V3m0 2H8m0-2v2"/>
</g><g id="camera" viewBox="0 0 24 24">
  <path d="M3 18V9a2 2 0 012-2h.93a2 2 0 001.664-.89l.812-1.22A2 2 0 0110.07 4h3.86a2 2 0 011.664.89l.812 1.22A2 2 0 0018.07 7H19a2 2 0 012 2v9a2 2 0 01-2 2H5a2 2 0 01-2-2z"/>
  <circle cx="12" cy="13" r="3"/>
</g><g id="urban" viewBox="0 0 24 24">
  <path d="M7 9V6a2 2 0 012-2h10a2 2 0 012 2v12a2 2 0 01-2 2h-6m0 0v-6.172a2 2 0 00-.586-1.414l-3-3a2 2 0 00-2.828 0l-3 3A2 2 0 003 13.828V18a2 2 0 002 2h3m5 0H8m0-4v4M17.001 8H17M13.001 8H13M17.001 12H17M17.001 16H17"/>
</g><g id="nature" viewBox="0 0 24 24">
  <path d="M12 13c-4 0-5-3.333-5-5V4l2.5 2L12 3l2.5 3L17 4v4c0 1.667-1 5-5 5zm0 0v8m1 0c5.6 0 7-4.667 7-7-5.6 0-7 4.667-7 7zm0 0h-1m-1 0c-5.6 0-7-4.667-7-7 5.6 0 7 4.667 7 7zm0 0h1"/>
</g><g id="folder" viewBox="0 0 24 24">
  <path d="M3 6a2 2 0 012-2h3.93a2 2 0 011.664.89l.812 1.22A2 2 0 0013.07 7H19a2 2 0 012 2v9a2 2 0 01-2 2H5a2 2 0 01-2-2V6z"/>
</g><g id="travel" viewBox="0 0 24 24">
  <circle cx="12" cy="12" r="9"/>
  <path d="M8 4v2a2 2 0 002 2h1a2 2 0 012 2v0a2 2 0 002 2v0a2 2 0 002-2v0a2 2 0 012-2h1m0 8h-3a2 2 0 00-2 2v2m-4 0v-2a2 2 0 00-2-2v0a2 2 0 01-2-2v0a2 2 0 00-2-2H3"/>
</g><g id="like" viewBox="0 0 24 24">
  <path d="M17 4c-3.2 0-5 2.667-5 4 0-1.333-1.8-4-5-4S3 6.667 3 8c0 7 9 12 9 12s9-5 9-12c0-1.333-.8-4-4-4z"/>
</g><g id="home" viewBox="0 0 24 24">
  <path d="M20 19v-8.5a1 1 0 00-.4-.8l-7-5.25a1 1 0 00-1.2 0l-7 5.25a1 1 0 00-.4.8V19a1 1 0 001 1h4a1 1 0 001-1v-3a1 1 0 011-1h2a1 1 0 011 1v3a1 1 0 001 1h4a1 1 0 001-1z"/>
</g><g id="info" viewBox="0 0 24 24">
  <circle cx="12" cy="12" r="9"/>
  <path d="M12 15v-3M12 9v0"/>
</g><g id="contact" viewBox="0 0 24 24">
  <path d="M7 9l3.75 3a2 2 0 002.5 0L17 9m4 8V7a2 2 0 00-2-2H5a2 2 0 00-2 2v10a2 2 0 002 2h14a2 2 0 002-2z"/>
</g><g id="location" viewBox="0 0 24 24">
  <path d="M21 9V4l-6 4-6-4-6 4v12l6-4 1 .667"/>
  <path d="M21 15c0 2.611-4 6-4 6s-4-3.389-4-6 1.79-4 4-4 4 1.389 4 4zM17 15.001V15"/>
</g><g id="people" viewBox="0 0 24 24">
  <path d="M3 11h2m16.5 0H19m0 0V6a2 2 0 00-2-2H7a2 2 0 00-2 2v5m14 0H5"/>
  <circle cx="7" cy="17" r="3"/>
  <circle cx="17" cy="17" r="3"/>
  <path d="M10 16h4"/>
</g><g id="exposition" viewBox="0 0 24 24">
  <path d="M12 9v3l2 1m4-1a6 6 0 11-12 0 6 6 0 0112 0z"/>
  <path d="M15 6.5V3a1 1 0 00-1-1h-4a1 1 0 00-1 1v3.5M15 17.5V21a1 1 0 01-1 1h-4a1 1 0 01-1-1v-3.5"/>
</g><g id="flickr" viewBox="0 0 24 24" role="img"><title>Flickr icon</title><path d="M5.334 6.666C2.3884 6.666 0 9.055 0 12c0 2.9456 2.3884 5.334 5.334 5.334 2.9456 0 5.332-2.3884 5.332-5.334 0-2.945-2.3864-5.334-5.332-5.334zm13.332 0c-2.9456 0-5.332 2.389-5.332 5.334 0 2.9456 2.3864 5.334 5.332 5.334C21.6116 17.334 24 14.9456 24 12c0-2.945-2.3884-5.334-5.334-5.334Z"/></g><g id="unsplash" viewBox="0 0 24 24" role="img"><title>Unsplash icon</title><path d="M7.5 6.75V0h9v6.75h-9zm9 3.75H24V24H0V10.5h7.5v6.75h9V10.5z"/></g><g id="iso" viewBox="0 0 24 24">
  <path d="M21 17V7a2 2 0 00-2-2H5a2 2 0 00-2 2v10a2 2 0 002 2h14a2 2 0 002-2z"/>
  <path d="M7 10v4m5-4h-1s-1 0-1 1 1 1 1 1c1 0 1 1 1 1 0 1-1 1-1 1h-1m5-3c0-1 1-1 1-1s1 0 1 1v2c0 1-1 1-1 1s-1 0-1-1z"/>
</g></svg>