<svg xmlns="http://www.w3.org/2000/svg" viewBox="0 0 180 150" width="1.44em" height="1.2em"><path fill="#fff" stroke="#fff" stroke-miterlimit="10" stroke-width="4.2" d="M57.3 123.7c-1.4 0-2-1.8-2-5.4V30c0-1.7-.4-2.5-1-2.4l-6.5 1.6c-1.1.1-1.7-1-1.7-3.5V18c0-2 .6-3.3 1.9-3.6L69.1 9h.7c1.2 0 1.8 1.2 1.8 3.7v105.6c0 3.6-.7 5.4-2.1 5.4zm54.6.1a30.2 30.2 0 0 1-5.5-.4 14.8 14.8 0 0 1-5-2 12.4 12.4 0 0 1-4.1-4.3c-1.1-1.8-2-4.3-2.7-7.6a57 57 0 0 1-1-11.6V57c0-1-.4-1.5-1-1.5h-4.9c-1.3 0-2-1.3-2-3.9v-4.3c0-2.6.7-4 2-4h5c.5 0 .8-.6.8-2L95 10c.1-2.9.8-4.3 2-4.3h8c1.4 0 2 1.4 2 4.3v31c0 1.5.4 2.2 1 2.2h10.2c1.3 0 2 1.3 2 3.9v4.3c0 2.6-.7 3.9-2 3.9H108c-.4 0-.6 0-.8.2L107 57v41.2c0 3 .2 5.6.6 7.7.4 2 1 3.5 1.8 4.5s1.5 1.6 2.3 2a7.3 7.3 0 0 0 2.8.4h5.7c1.4 0 2.1 1 2.1 3v4.7c0 2.2-.7 3.3-2.3 3.3zm30.7 9.6c1.2 0 2.3-1 3.2-3 .9-2 1.3-4.8 1.3-8.5 0-.9-.5-3.8-1.6-8.9L130 48l-.2-1.9c0-1.9.4-2.8 1.2-2.8h9.7c.7 0 1.3.2 1.8.7.5.5.9 1.6 1.1 3.1l10.4 55 .4 1c.2 0 .3-.4.3-1l8.2-54.8c.2-1.6.5-2.6 1-3.2a2.1 2.1 0 0 1 1.7-.8h6.7c.9 0 1.4 1 1.4 3 0 .5 0 1.2-.2 2l-14.2 74a74.3 74.3 0 0 1-3.7 14 14.9 14.9 0 0 1-4.5 6.7 11.6 11.6 0 0 1-6.5 1.8h-.8c-4.4 0-7.3-1.1-8.8-3.4-.4-.5-.7-1.7-.7-3.7 0-4 .7-6 2-6l2.8.9c1.9.5 3 .8 3.6.8zM17 123.8c-1.4 0-2-1.8-2-5.3V30.2c0-1.7-.4-2.5-1-2.4l-6.5 1.6c-1.1 0-1.7-1.1-1.7-3.5v-7.7c0-2.1.6-3.3 1.9-3.6l21.1-5.4.7-.1c1.2 0 1.8 1.2 1.8 3.7v105.7c0 3.5-.7 5.3-2.1 5.3z"/></svg>