<svg xmlns="http://www.w3.org/2000/svg" viewBox="0 0 98 96" width="1.2em" height="1.2em"><path fill="#ffffff" fill-rule="evenodd" d="M48.9 0a49.2 49.2 0 0 0-15.4 96c2.3.4 3.2-1.2 3.2-2.5v-9c-13.6 2.9-16.5-6-16.5-6-2.2-5.7-5.4-7.1-5.4-7.1-4.4-3 .3-3 .3-3 5 .3 7.5 5 7.5 5 4.4 7.5 11.5 5.4 14.3 4a11 11 0 0 1 3-6.5c-10.8-1.1-22.2-5.4-22.2-24.3 0-5.4 2-9.8 5-13.2-.5-1.2-2.2-6.3.5-13 0 0 4.1-1.3 13.4 5A47 47 0 0 1 49 23.8c4 0 8.3.6 12.2 1.6 9.3-6.3 13.4-5 13.4-5 2.7 6.7 1 11.8.5 13a19 19 0 0 1 5 13.2c0 19-11.4 23-22.3 24.3 1.7 1.5 3.3 4.5 3.3 9.1v13.5c0 1.3.8 2.9 3.2 2.4a49.2 49.2 0 0 0 33.4-46.7A49 49 0 0 0 49 0z" clip-rule="evenodd"/></svg>