<svg xmlns="http://www.w3.org/2000/svg" fill="none" viewBox="0 0 75 79" width="1.14em" height="1.2em"><path fill="url(#a)" d="M73.8 17.5A20.1 20.1 0 0 0 56.5 1c-1.5-.2-7-1-20-1h-.1C23.4 0 20.6.8 19 1A21.5 21.5 0 0 0 1 17C0 21-.1 25.8.1 30c.2 6.2.3 12.3.8 18.5a86.9 86.9 0 0 0 2 12c1.8 7.4 9 13.6 16.2 16A43.4 43.4 0 0 0 42.8 78l2.6-.7c1.9-.6 4.1-1.3 5.8-2.5a.2.2 0 0 0 0-.1v-6a.2.2 0 0 0-.2-.1 65.6 65.6 0 0 1-15.4 1.8c-8.9 0-11.3-4.3-12-6a18.6 18.6 0 0 1-1-4.8.2.2 0 0 1 .1-.1h.1A64.4 64.4 0 0 0 38 61.2h3.7a95.4 95.4 0 0 0 16-1.5c7.9-1.5 15.4-6.3 16.2-18.5l.1-5.5c0-1.6.5-12 0-18.2Z"/><path fill="#fff" d="M61.3 27v21.1h-8.4V27.6c0-4.3-1.8-6.5-5.5-6.5-4 0-6 2.6-6 7.8V40h-8.3V28.9c0-5.2-2-7.8-6-7.8-3.6 0-5.5 2.2-5.5 6.5v20.5h-8.3v-21c0-4.4 1-7.8 3.3-10.3 2.3-2.6 5.2-3.9 9-3.9 4.2 0 7.4 1.7 9.6 5l2 3.5 2.2-3.5c2.1-3.3 5.3-5 9.6-5 3.7 0 6.7 1.3 9 3.9A15 15 0 0 1 61.3 27Z"/><defs><linearGradient id="a" x1="37.1" x2="37.1" y1="0" y2="79" gradientUnits="userSpaceOnUse"><stop stop-color="#6364FF"/><stop offset="1" stop-color="#563ACC"/></linearGradient></defs></svg>