<svg xmlns="http://www.w3.org/2000/svg" xmlns:xlink="http://www.w3.org/1999/xlink" viewBox="0 0 50 50" width="1.2em" height="1.2em"><defs><linearGradient id="c" x1="100%" x2="0%" y1="55.81%" y2="60.12%"><stop offset="0%" stop-color="#FF5C34"/><stop offset="100%" stop-color="#EB0256"/></linearGradient><linearGradient id="d" x1="33.09%" x2="68.99%" y1="100%" y2="15.31%"><stop offset="0%" stop-color="#A63FDB"/><stop offset="100%" stop-color="#FF257E"/></linearGradient><linearGradient id="e" x1="14.72%" x2="94.32%" y1="50%" y2="67.53%"><stop offset="0%" stop-color="#00FFF0"/><stop offset="100%" stop-color="#0087FF"/></linearGradient><linearGradient id="f" x1="81.23%" x2="20.82%" y1="10.01%" y2="74.49%"><stop offset="0%" stop-color="#17C934"/><stop offset="100%" stop-color="#03FF6E"/></linearGradient><linearGradient id="g" x1="50%" x2="30.56%" y1="111.91%" y2="0%"><stop offset="0%" stop-color="#FFB000"/><stop offset="100%" stop-color="#FF7725"/></linearGradient><linearGradient id="k" x1="-81.36%" x2="121.42%" y1="59.62%" y2="72.06%"><stop offset="0%" stop-color="#9EE85D"/><stop offset="100%" stop-color="#0ED061"/></linearGradient><linearGradient id="m" x1="45.51%" x2="0%" y1="116.82%" y2="-4.04%"><stop offset="0%" stop-color="#21EFE3"/><stop offset="100%" stop-color="#2598FF"/></linearGradient><linearGradient id="o" x1="100%" x2="-89.65%" y1="58.21%" y2="74.32%"><stop offset="0%" stop-color="#A63FDB"/><stop offset="100%" stop-color="#FF257E"/></linearGradient><path id="a" d="M0 .11h50v49.78H0z"/><path id="h" d="M25.88 24.66A12.43 12.43 0 0 0 12.76 13 12.39 12.39 0 0 0 .94 25.95l.01.2A24.67 24.67 0 0 1 16 2l.53-.2c6.39-2.56 13.67.5 16.25 6.81s-.5 13.5-6.9 16.05Z"/><path id="i" d="m16.34 1.87.19-.07c6.39-2.56 13.67.5 16.25 6.81s-.5 13.5-6.9 16.05c-.05-1-.23-1.98-.5-2.9a10.9 10.9 0 0 0 5.75-9.6A11 11 0 0 0 20.06 1.25c-1.3 0-2.56.22-3.72.63Z"/><path id="j" d="m28.38 9.27.19-.07c6.39-2.56 13.67.5 16.25 6.81s-.5 13.5-6.9 16.05c-.05-1-.23-1.98-.5-2.9a10.9 10.9 0 0 0 5.75-9.6A11 11 0 0 0 32.1 8.65c-1.3 0-2.56.22-3.72.63Z"/><path id="l" d="m25.14 22.73.18-.07c6.4-2.55 13.67.5 16.25 6.81 2.59 6.32-.5 13.5-6.9 16.06a11.97 11.97 0 0 0-.5-2.9 10.9 10.9 0 0 0 5.75-9.6A11 11 0 0 0 28.86 22.1c-1.3 0-2.56.22-3.72.63Z"/><path id="n" d="m10.65 23.76.2-.07c6.38-2.55 13.66.5 16.24 6.81 2.59 6.32-.5 13.5-6.9 16.06-.05-1-.22-1.98-.5-2.9a10.9 10.9 0 0 0 5.75-9.6 11 11 0 0 0-11.06-10.93c-1.31 0-2.56.22-3.73.63Z"/><path id="p" d="m5.55 10.7.18-.08c6.4-2.55 13.67.5 16.26 6.82a12.28 12.28 0 0 1-6.9 16.05c-.06-1-.23-1.98-.51-2.9a10.9 10.9 0 0 0 5.75-9.6A11 11 0 0 0 9.27 10.06c-1.3 0-2.56.23-3.72.64Z"/><path id="q" d="M35.63 42.37h4.55a7.64 7.64 0 0 0 7.75-7.51 7.64 7.64 0 0 0-7.75-7.51h-6.56a4.4 4.4 0 0 0-4.48 4.33v16.87l6.5-6.18Z"/><filter id="r" width="153.2%" height="147.2%" x="-26.6%" y="-18.9%" filterUnits="objectBoundingBox"><feOffset dy="1" in="SourceAlpha" result="shadowOffsetOuter1"/><feGaussianBlur in="shadowOffsetOuter1" result="shadowBlurOuter1" stdDeviation="1.5"/><feColorMatrix in="shadowBlurOuter1" values="0 0 0 0 0 0 0 0 0 0 0 0 0 0 0 0 0 0 0.298686594 0"/></filter></defs><g fill="none" fill-rule="evenodd"><mask id="b" fill="#fff"><use xlink:href="#a"/></mask><g mask="url(#b)"><path fill="url(#c)" d="M25.88 24.66a12.5 12.5 0 0 0-15.13 8.99 12.32 12.32 0 0 0 9.09 14.94l.5.13A24.77 24.77 0 0 1 .96 26.15v-.2A12.39 12.39 0 0 1 12.74 13a12.43 12.43 0 0 1 13.13 11.67Z" transform="rotate(40 25.03 23.6)"/><path fill="url(#d)" d="M25.88 24.66a12.25 12.25 0 0 0 4.27 16.93 12.57 12.57 0 0 0 17.13-4.22l.24-.39a25.02 25.02 0 0 1-21.64 12.35c-1.9 0-3.75-.21-5.53-.61l-.51-.13a12.32 12.32 0 0 1-9.1-14.94 12.5 12.5 0 0 1 15.14-8.99Z" transform="rotate(40 25.03 23.6)"/><path fill="url(#e)" d="M25.88 24.66a12.6 12.6 0 0 0 17.59 1.52A12.23 12.23 0 0 0 45 8.81l-.1-.12a24.39 24.39 0 0 1 2.6 28.29l-.23.39a12.57 12.57 0 0 1-17.13 4.22 12.25 12.25 0 0 1-4.27-16.93Z" transform="rotate(40 25.03 23.6)"/><path fill="url(#f)" d="M25.88 24.66a12.28 12.28 0 0 0 6.9-16.05A12.54 12.54 0 0 0 16.53 1.8L16 2c3.03-1.29 6.37-2 9.88-2 7.62 0 14.45 3.37 19.03 8.7l.1.11c4.43 5.22 3.74 13-1.54 17.37a12.6 12.6 0 0 1-17.59-1.52Z" transform="rotate(40 25.03 23.6)"/><g fill="url(#g)" transform="rotate(40 25.03 23.6)"><use xlink:href="#h"/><use xlink:href="#h" fill-opacity=".1" style="mix-blend-mode:multiply"/></g><g opacity=".5" transform="rotate(40 25.03 23.6)"><use xlink:href="#i" fill="url(#g)"/><use xlink:href="#i" fill="#000" fill-opacity=".5" style="mix-blend-mode:overlay"/></g><g opacity=".54" transform="rotate(112 33.87 24.23)"><use xlink:href="#j" fill="url(#k)"/><use xlink:href="#j" fill="#000" fill-opacity=".5" style="mix-blend-mode:overlay"/></g><g opacity=".56" transform="rotate(-177 29.6 35.4)"><use xlink:href="#l" fill="url(#m)"/><use xlink:href="#l" fill="#000" style="mix-blend-mode:overlay"/></g><g opacity=".58" transform="rotate(-103 13.95 33.85)"><use xlink:href="#n" fill="url(#o)"/><use xlink:href="#n" fill="#000" fill-opacity=".5" style="mix-blend-mode:overlay"/></g><g opacity=".18" transform="rotate(-31 4.44 11.5)"><use xlink:href="#p" fill="url(#c)"/><use xlink:href="#p" fill="#000" fill-opacity=".77" style="mix-blend-mode:multiply"/></g><g fill-rule="nonzero" transform="translate(-12.6 -12.1)"><use xlink:href="#q" fill="#000" filter="url(#r)"/><use xlink:href="#q" fill="#FFF"/></g></g></g></svg>