<?xml version="1.0" encoding="UTF-8" standalone="no"?>
<svg
   xmlns:dc="http://purl.org/dc/elements/1.1/"
   xmlns:cc="http://creativecommons.org/ns#"
   xmlns:rdf="http://www.w3.org/1999/02/22-rdf-syntax-ns#"
   xmlns:svg="http://www.w3.org/2000/svg"
   xmlns="http://www.w3.org/2000/svg"
   xmlns:sodipodi="http://sodipodi.sourceforge.net/DTD/sodipodi-0.dtd"
   xmlns:inkscape="http://www.inkscape.org/namespaces/inkscape"
   width="1.3612492in"
   height="1.246805in"
   viewBox="0 0 34.57573 31.668846"
   version="1.1"
   id="svg8"
   inkscape:version="1.0.2 (e86c8708, 2021-01-15)"
   sodipodi:docname="logo-inkscape.svg">
  <defs
     id="defs2" />
  <sodipodi:namedview
     id="base"
     pagecolor="#ffffff"
     bordercolor="#666666"
     borderopacity="1.0"
     inkscape:pageopacity="0.0"
     inkscape:pageshadow="2"
     inkscape:zoom="0.97784853"
     inkscape:cx="117.80368"
     inkscape:cy="289.13234"
     inkscape:document-units="mm"
     inkscape:current-layer="text12-4"
     inkscape:document-rotation="0"
     showgrid="false"
     inkscape:window-width="1434"
     inkscape:window-height="943"
     inkscape:window-x="588"
     inkscape:window-y="200"
     inkscape:window-maximized="0"
     units="in"
     fit-margin-top="0.1"
     fit-margin-left="0.1"
     fit-margin-right="0.1"
     fit-margin-bottom="0.1" />
  <metadata
     id="metadata5">
    <rdf:RDF>
      <cc:Work
         rdf:about="">
        <dc:format>image/svg+xml</dc:format>
        <dc:type
           rdf:resource="http://purl.org/dc/dcmitype/StillImage" />
        <dc:title></dc:title>
      </cc:Work>
    </rdf:RDF>
  </metadata>
  <g
     inkscape:label="Calque 1"
     inkscape:groupmode="layer"
     id="layer1"
     transform="translate(1.6110519,1.7941866)">
    <g
       aria-label="Hoizey"
       transform="matrix(1.0280845,0,0,0.97268269,-17.069095,-38.370197)"
       id="text12-5"
       style="font-style:normal;font-weight:normal;font-size:10.8805px;line-height:1.25;font-family:sans-serif;fill:#663399;fill-opacity:1;stroke:none;stroke-width:0.272014">
      <path
         id="path961"
         style="font-style:normal;font-variant:normal;font-weight:800;font-stretch:normal;font-family:Coniferous;-inkscape-font-specification:'Coniferous Ultra-Bold';fill:#663399;fill-opacity:1;stroke:none;stroke-width:0.272014;stroke-opacity:1"
         d="m 42.527469,59.27892 q -0.892201,0 -1.370943,-0.22849 -0.467862,-0.228491 -0.467862,-0.761635 0,-0.239371 0.108805,-0.4461 0.119686,-0.195849 0.402579,-0.391698 0.293773,-0.184969 0.805157,-0.369937 0.511383,-0.195849 1.294779,-0.413459 0,-0.21761 0,-0.456981 0.01088,-0.250252 0.01088,-0.533145 -0.282893,0.65283 -0.685472,0.892201 -0.402578,0.228491 -0.903081,0.228491 -0.783396,0 -1.022767,-0.65283 -0.228491,-0.65283 -0.228491,-1.751761 0,-0.576666 0.04352,-1.153333 0.04352,-0.587547 0.152327,-1.011886 0.04352,-0.152327 0.141447,-0.228491 0.108805,-0.08704 0.315534,-0.08704 0.43522,0 0.761635,0.239371 0.337296,0.239371 0.337296,0.511384 0,0.65283 -0.0544,1.294779 -0.04352,0.64195 -0.03264,1.022767 0,0.141447 0.04352,0.20673 0.0544,0.06528 0.141446,0.06528 0.184969,0 0.380818,-0.239371 0.195849,-0.239371 0.359056,-0.620189 0.163208,-0.380817 0.272013,-0.859559 0.119685,-0.489623 0.130566,-0.968365 0.01088,-0.304654 0.09792,-0.43522 0.08704,-0.130566 0.250252,-0.130566 0.43522,0 0.66371,0.195849 0.228491,0.184969 0.250252,0.42434 0.02176,0.250251 0.04352,0.598427 0.02176,0.348176 0.03264,0.761635 0.02176,0.402579 0.03264,0.848679 0.01088,0.446101 0.01088,0.881321 0.184969,-0.21761 0.326415,-0.446101 0.152327,-0.239371 0.239371,-0.500503 0.01088,-0.0544 0.0544,-0.08704 0.04352,-0.03264 0.08704,-0.03264 0.141446,0 0.315534,0.174088 0.174088,0.174088 0.174088,0.359056 0,0.696352 -0.380817,1.142453 -0.369937,0.43522 -0.848679,0.696352 -0.108805,1.218616 -0.598428,1.740879 -0.489622,0.522264 -1.686477,0.522264 z m 0.09792,-0.870439 q 0.315535,0 0.478742,-0.152327 0.163208,-0.141447 0.184969,-0.674591 -0.587547,0.206729 -0.816038,0.315534 -0.21761,0.119686 -0.21761,0.261132 0,0.108805 0.08704,0.174088 0.09792,0.07616 0.282893,0.07616 z m -4.578816,-5.353206 q -0.359057,0 -0.631069,0.43522 -0.261132,0.424339 -0.261132,1.022767 0.685471,-0.282893 0.935723,-0.576667 0.261132,-0.304654 0.261132,-0.544025 0,-0.163207 -0.07616,-0.250251 -0.07616,-0.08704 -0.22849,-0.08704 z m 0.163207,2.992137 q 0.533145,0 0.935723,-0.293773 0.413459,-0.304654 0.728994,-0.772516 0.326415,-0.478742 0.576666,-1.055408 0.261132,-0.576667 0.467862,-1.131572 0.02176,-0.0544 0.06528,-0.07616 0.04352,-0.03264 0.08704,-0.03264 0.141446,0 0.304654,0.174088 0.174088,0.163207 0.174088,0.348176 0,0.522264 -0.21761,1.273018 -0.21761,0.739874 -0.674591,1.414465 -0.446101,0.663711 -1.131572,1.142453 -0.685472,0.478742 -1.610314,0.478742 -0.64195,0 -1.08805,-0.20673 -0.43522,-0.206729 -0.707233,-0.544025 -0.272012,-0.348176 -0.391698,-0.816037 -0.130566,-0.467862 -0.130566,-0.979245 0,-0.65283 0.184969,-1.229497 0.184968,-0.576666 0.511383,-0.990125 0.326415,-0.413459 0.772516,-0.65283 0.456981,-0.239371 0.968364,-0.239371 0.739874,0 1.175094,0.402578 0.43522,0.402579 0.43522,1.055409 0,0.337295 -0.152327,0.685471 -0.152327,0.348176 -0.4461,0.620189 -0.293774,0.272012 -0.750755,0.4461 -0.456981,0.174088 -1.055408,0.184969 0.119685,0.402578 0.380817,0.598427 0.261132,0.195849 0.587547,0.195849 z m -4.58358,1.425346 h -0.304654 q -0.913962,0 -1.392704,-0.119686 -0.467861,-0.119685 -0.467861,-0.359056 0,-0.337296 0.03264,-0.598428 0.03264,-0.261132 0.174088,-0.391698 0.522264,-0.456981 0.968365,-0.968364 0.4461,-0.522264 0.761635,-1.207736 -0.522264,0.09792 -0.979245,0.130566 -0.456981,0.03264 -0.631069,0.03264 -0.195849,0 -0.315535,-0.163208 -0.119685,-0.174088 -0.184968,-0.391698 -0.0544,-0.21761 -0.07616,-0.4461 -0.02176,-0.228491 -0.02176,-0.337296 0,-0.500503 0.174088,-0.620188 0.184969,-0.119686 0.620189,-0.119686 0.163207,0 0.424339,0.01088 0.261132,0 0.587547,0.01088 0.326415,0.01088 0.696352,0.03264 0.369937,0.01088 0.739874,0.03264 0.239371,0.01088 0.391698,0.250252 0.163208,0.22849 0.163208,0.587547 0,0.195849 -0.03264,0.43522 -0.02176,0.22849 -0.184968,0.598427 -0.163208,0.359057 -0.522264,0.903082 -0.359057,0.544025 -1.022767,1.349182 0.369937,-0.02176 0.707232,-0.141447 0.337296,-0.119685 0.64195,-0.326415 0.565786,-0.380817 1.011886,-1.09893 0.446101,-0.728994 0.826918,-1.751761 0.02176,-0.0544 0.06528,-0.07616 0.04352,-0.03264 0.09792,-0.03264 0.163207,0 0.337295,0.174088 0.174088,0.163208 0.130566,0.348176 -0.304654,1.131572 -0.739874,2.067295 -0.424339,0.935723 -1.011886,1.490629 -0.348176,0.337295 -0.772516,0.522264 -0.413459,0.174088 -0.892201,0.174088 z m -4.413913,-5.918992 q -0.554905,0 -0.848679,-0.261132 -0.282893,-0.261132 -0.282893,-0.598428 0,-0.43522 0.337296,-0.707232 0.348176,-0.282893 0.903081,-0.282893 0.598428,0 0.826918,0.272012 0.239371,0.272013 0.239371,0.544025 0,0.489623 -0.326415,0.761635 -0.326415,0.272013 -0.848679,0.272013 z m 0.805157,4.210753 q 0.184969,0 0.369937,-0.282893 0.195849,-0.293773 0.380818,-0.728993 0.184968,-0.43522 0.359056,-0.957484 0.174088,-0.522264 0.326415,-0.990126 0.02176,-0.06528 0.06528,-0.08704 0.04352,-0.03264 0.08704,-0.03264 0.141447,0 0.304654,0.174088 0.174088,0.174088 0.174088,0.359056 0,0.522264 -0.184968,1.262138 -0.184969,0.739874 -0.533145,1.414465 -0.337295,0.674591 -0.826918,1.153333 -0.478742,0.467862 -1.077169,0.467862 -0.87044,0 -1.153333,-0.761635 -0.272013,-0.772516 -0.272013,-2.099937 0,-0.946603 0.03264,-1.490628 0.03264,-0.554906 0.08704,-0.85956 0.04352,-0.272012 0.152327,-0.348176 0.119685,-0.08704 0.293773,-0.08704 0.195849,0 0.402579,0.04352 0.206729,0.04352 0.369937,0.130566 0.163207,0.08704 0.261132,0.228491 0.108805,0.130566 0.108805,0.304654 0,0.326415 -0.08704,0.826918 -0.07616,0.500503 -0.07616,1.392704 0,0.500503 0.108805,0.739874 0.119686,0.22849 0.326415,0.22849 z m -4.557059,0.282893 q 0.261132,0 0.391698,-0.22849 0.130566,-0.239371 0.174088,-0.576667 -0.250252,-0.174088 -0.369937,-0.4461 -0.108805,-0.282893 -0.108805,-0.587547 0,-0.250252 0.06528,-0.489623 0.06528,-0.239371 0.174088,-0.43522 -0.06528,-0.0544 -0.141447,-0.07616 -0.07616,-0.03264 -0.152327,-0.03264 -0.326415,0 -0.511383,0.402579 -0.174088,0.402578 -0.174088,0.990125 0,0.750755 0.163207,1.120692 0.174088,0.359056 0.489623,0.359056 z m -0.272013,1.457987 q -0.500503,0 -0.87044,-0.206729 -0.359056,-0.20673 -0.598427,-0.544025 -0.239371,-0.348176 -0.348176,-0.805157 -0.119686,-0.467862 -0.119686,-0.979245 0,-0.65283 0.141447,-1.229497 0.130566,-0.576666 0.391698,-0.990125 0.261132,-0.413459 0.66371,-0.65283 0.402579,-0.239371 0.924843,-0.239371 0.837798,0 1.360062,0.609308 0.522264,0.609308 0.565786,1.904087 0.369937,-0.07616 0.674591,-0.43522 0.304654,-0.369937 0.598428,-1.142452 0.02176,-0.0544 0.0544,-0.07616 0.04352,-0.03264 0.08704,-0.03264 0.141447,0 0.315535,0.174088 0.174088,0.163207 0.174088,0.348176 0,0.979245 -0.533145,1.632075 -0.533144,0.641949 -1.457987,0.685471 -0.07616,0.369937 -0.22849,0.728994 -0.152327,0.359056 -0.391698,0.641949 -0.239371,0.272013 -0.587547,0.446101 -0.348176,0.163207 -0.816038,0.163207 z M 20.966399,50.56364 q 0.01088,-0.174088 0.130566,-0.282893 0.119685,-0.119685 0.413459,-0.119685 0.130566,0 0.315534,0.02176 0.195849,0.02176 0.369937,0.06528 0.184969,0.04352 0.315535,0.130566 0.141446,0.07616 0.163207,0.184968 0.07616,0.369937 0.08704,1.327421 0.01088,0.957484 -0.01088,2.002012 -0.02176,1.033648 -0.06528,1.925849 -0.03264,0.88132 -0.0544,1.109811 -0.02176,0.272012 -0.130566,0.413459 -0.108805,0.141446 -0.424339,0.141446 -0.402579,0 -0.718113,-0.08704 -0.315535,-0.08704 -0.348176,-0.304654 -0.02176,-0.174088 -0.0544,-0.761635 -0.03264,-0.587547 -0.04352,-1.370943 -0.21761,0.03264 -0.533144,0.07616 -0.315535,0.03264 -0.65283,0.07616 -0.01088,0.65283 -0.04352,1.153333 -0.03264,0.500503 -0.04352,0.663711 -0.02176,0.272012 -0.130566,0.413459 -0.108805,0.141446 -0.42434,0.141446 -0.402578,0 -0.718113,-0.08704 -0.315534,-0.08704 -0.348176,-0.304654 -0.02176,-0.163207 -0.0544,-0.674591 -0.02176,-0.522264 -0.03264,-1.218616 -0.174088,-0.108805 -0.304654,-0.380817 -0.119685,-0.282893 -0.119685,-0.511384 0,-0.130566 0.03264,-0.206729 0.03264,-0.07616 0.108805,-0.08704 0.0544,-0.01088 0.119686,-0.02176 0.06528,-0.02176 0.141446,-0.03264 -0.01088,-0.913962 0,-1.838804 0.02176,-0.924843 0.06528,-1.555912 0.01088,-0.174088 0.130566,-0.282893 0.119686,-0.119685 0.413459,-0.119685 0.130566,0 0.315535,0.02176 0.195849,0.02176 0.369937,0.06528 0.184968,0.04352 0.315534,0.130566 0.141447,0.07616 0.163208,0.184968 0.03264,0.174088 0.0544,0.511384 0.02176,0.337295 0.03264,0.772515 0.01088,0.42434 0.01088,0.924843 0,0.500503 -0.01088,1.011886 0.337295,-0.01088 0.631069,-0.02176 0.293773,-0.01088 0.500503,-0.01088 -0.01088,-0.881321 0,-1.74088 0.02176,-0.85956 0.06528,-1.447107 z" />
    </g>
    <g
       aria-label="photography"
       transform="scale(1.0377691,0.96360549)"
       id="text12-4"
       style="font-style:normal;font-weight:normal;font-size:8.78645px;line-height:1.25;font-family:sans-serif;fill:#000000;fill-opacity:1;stroke:none;stroke-width:0.274576">
      <path
         id="path985"
         style="font-style:normal;font-variant:normal;font-weight:300;font-stretch:normal;font-size:8.78645px;font-family:Coniferous;-inkscape-font-specification:'Coniferous Light';fill:#a081c0;fill-opacity:1;stroke-width:0.274576"
         d="m 27.568895,28.367064 q -0.307526,0 -0.54476,-0.14937 -0.237234,-0.140583 -0.237234,-0.430536 0,-0.184515 0.12301,-0.342672 0.123011,-0.158156 0.325099,-0.325098 0.202088,-0.158156 0.465682,-0.333885 0.263593,-0.184516 0.535973,-0.412964 0,-0.131796 0,-0.360244 0,-0.228448 0,-0.500828 0,-0.27238 0,-0.571119 0.0088,-0.307526 0.0088,-0.597479 -0.0615,0.386604 -0.140583,0.773208 -0.07908,0.386604 -0.184516,0.69413 -0.105437,0.298739 -0.24602,0.492041 -0.131797,0.184515 -0.316313,0.184515 -0.289952,0 -0.535973,-0.325098 -0.246021,-0.333885 -0.246021,-0.861073 0,-0.685343 0.03515,-1.388259 0.04393,-0.702916 0.105437,-1.194957 0.0088,-0.12301 0.03515,-0.175729 0.02636,-0.05272 0.07029,-0.05272 0.04393,0 0.105437,0.07029 0.07029,0.07029 0.07029,0.219661 0,0.131797 -0.01757,0.430536 -0.0088,0.29874 -0.02636,0.667771 -0.0088,0.36903 -0.02636,0.764421 -0.0088,0.39539 -0.0088,0.720489 0,0.342671 0.07908,0.579905 0.07908,0.237235 0.263593,0.237235 0.184516,0 0.351458,-0.333886 0.175729,-0.333885 0.29874,-0.808353 0.131796,-0.474468 0.219661,-1.001655 0.09665,-0.535974 0.12301,-0.931364 0.01757,-0.307526 0.03515,-0.439323 0.02636,-0.131796 0.114224,-0.131796 0.08786,0 0.131797,0.07908 0.05272,0.07908 0.05272,0.193302 0,0.237234 -0.0088,0.64141 -0.0088,0.395391 -0.01757,0.861073 0,0.465681 -0.0088,0.957723 -0.0088,0.492041 -0.0088,0.905004 0.193302,-0.210875 0.360245,-0.465682 0.175729,-0.254807 0.307525,-0.66777 0,-0.0088 0.0088,-0.0088 0.0088,-0.0088 0.01757,-0.0088 0.01757,0 0.04393,0.02636 0.03515,0.02636 0.03515,0.06151 0,0.360244 -0.254807,0.746848 -0.246021,0.377817 -0.518401,0.54476 -0.01757,0.878645 -0.219661,1.423405 -0.193302,0.54476 -0.755635,0.54476 z m 0.02636,-0.27238 q 0.325098,0 0.474468,-0.439323 0.158156,-0.430536 0.166942,-1.071947 -0.527187,0.404177 -0.843499,0.676557 -0.316312,0.281166 -0.316312,0.500828 0,0.131796 0.114224,0.228447 0.114224,0.105438 0.404177,0.105438 z m -3.822793,-7.529988 q 0.0088,-0.07029 0.02636,-0.105438 0.02636,-0.03514 0.06151,-0.04393 0.03514,0 0.07908,0.04393 0.05272,0.04393 0.05272,0.158156 0,0.896218 -0.0088,1.713358 0,0.81714 -0.0088,1.502483 -0.0088,0.685343 -0.01757,1.230103 -0.0088,0.54476 -0.01757,0.896218 0.08786,-0.658984 0.210874,-1.291608 0.123011,-0.641411 0.289953,-1.133452 0.166943,-0.492041 0.386604,-0.790781 0.228448,-0.307525 0.527187,-0.307525 0.237234,0 0.325099,0.193302 0.09665,0.193301 0.09665,0.509614 0,0.27238 -0.03515,0.632624 -0.02636,0.351458 -0.06151,0.738062 -0.03515,0.377817 -0.07029,0.773208 -0.02636,0.39539 -0.02636,0.738061 0,0.377818 0.07029,0.500828 0.07908,0.12301 0.158157,0.12301 0.149369,0 0.289952,-0.307525 0.140584,-0.307526 0.254807,-0.799567 0.123011,-0.492042 0.228448,-1.107093 0.105438,-0.623838 0.193302,-1.247676 0.0088,-0.03515 0.01757,-0.0615 0.0088,-0.03515 0.01757,-0.03515 0.02636,0 0.04393,0.04393 0.01757,0.03515 0.01757,0.08787 0,0.105437 -0.07029,0.711702 -0.07029,0.597479 -0.210874,1.282822 -0.131797,0.676557 -0.342672,1.230103 -0.210875,0.54476 -0.483255,0.54476 -0.228447,0 -0.386603,-0.237234 -0.14937,-0.237234 -0.14937,-0.685343 0,-0.790781 0.09665,-1.581561 0.105437,-0.799567 0.105437,-1.432192 0,-0.149369 -0.03515,-0.228448 -0.03514,-0.07908 -0.12301,-0.07908 -0.210875,0 -0.42175,0.42175 -0.202088,0.42175 -0.36903,1.036801 -0.166943,0.615052 -0.289953,1.326754 -0.114224,0.711703 -0.158156,1.282822 -0.0088,0.05272 -0.05272,0.08786 -0.04393,0.02636 -0.09665,0.02636 -0.08787,0 -0.158156,-0.07908 -0.0615,-0.07908 -0.07029,-0.263594 -0.0088,-0.27238 -0.0088,-1.142238 0,-0.878645 0.01757,-1.862728 0.0088,-0.984082 0.03514,-1.853941 0.02636,-0.878645 0.07029,-1.159811 z m -1.806026,6.150515 q 0.289953,0 0.465682,-0.738062 0.184515,-0.746848 0.184515,-2.416274 0,-0.369031 -0.105437,-0.588692 -0.105437,-0.228448 -0.281166,-0.228448 -0.175729,0 -0.342672,0.369031 -0.166943,0.360245 -0.298739,0.869859 -0.131797,0.500828 -0.210875,1.045588 -0.07908,0.535973 -0.07908,0.878645 v 0.04393 q 0.0088,0.369031 0.184515,0.571119 0.184516,0.193302 0.483255,0.193302 z m -0.623838,1.186171 q 0,0.24602 -0.03515,0.325098 -0.03515,0.08787 -0.09665,0.08787 -0.09665,0 -0.158156,-0.105437 -0.0615,-0.105438 -0.07029,-0.333886 0,-0.06151 -0.0088,-0.237234 0,-0.175729 0,-0.430536 0,-0.254807 0,-0.579905 0,-0.325099 0,-0.676557 0,-0.377818 0,-0.781994 0.0088,-0.404177 0.0088,-0.790781 0.0088,-0.39539 0.01757,-0.773207 0.0088,-0.377818 0.01757,-0.685344 0.0088,-0.24602 0.03515,-0.316312 0.03515,-0.07908 0.07029,-0.07908 0.04393,0 0.114224,0.105438 0.07029,0.105437 0.07029,0.316312 0,0.254807 0,0.711702 0,0.456896 -0.0088,1.019229 0.07029,-0.42175 0.158156,-0.825927 0.08786,-0.404177 0.193302,-0.711702 0.114224,-0.316313 0.254807,-0.509614 0.14937,-0.193302 0.333885,-0.193302 0.27238,0 0.492041,0.333885 0.228448,0.325098 0.228448,0.852285 0,1.098307 -0.09665,1.818796 -0.08787,0.711702 -0.254807,1.08952 0.219661,-0.210875 0.412963,-0.57112 0.202088,-0.360244 0.360245,-0.799567 0.166942,-0.448109 0.289952,-0.957723 0.131797,-0.509614 0.202089,-1.019228 0.01757,-0.14937 0.0615,-0.07908 0.04393,0.0615 0.03515,0.158156 -0.07029,0.606265 -0.219662,1.274035 -0.140583,0.658984 -0.377817,1.203744 -0.228448,0.54476 -0.553546,0.896218 -0.316313,0.351458 -0.729276,0.351458 -0.0088,0 -0.01757,0 0,0 -0.0088,0 h -0.0088 q -0.246021,0 -0.430537,-0.12301 -0.184515,-0.131797 -0.316312,-0.325099 0.01757,0.42175 0.02636,0.729275 0.0088,0.307526 0.0088,0.632625 z M 19.021464,22.70859 q -0.289953,0 -0.474469,0.746848 -0.175729,0.738062 -0.175729,2.407487 0,0.342672 0.07908,0.579906 0.07908,0.237234 0.263594,0.237234 0.184515,0 0.360244,-0.360244 0.175729,-0.369031 0.307526,-0.878645 0.140583,-0.509614 0.219661,-1.054374 0.08787,-0.54476 0.08787,-0.905005 0,-0.369031 -0.184516,-0.571119 Q 19.32021,22.70859 19.021471,22.70859 Z m 1.115879,4.279001 q -0.219661,0 -0.377818,-0.210875 -0.158156,-0.210875 -0.149369,-0.597478 l 0.03515,-1.203744 q -0.06151,0.39539 -0.14937,0.764421 -0.07908,0.360244 -0.175729,0.641411 -0.09665,0.27238 -0.228448,0.439322 -0.12301,0.166943 -0.281166,0.166943 -0.289953,0 -0.535974,-0.325099 -0.24602,-0.333885 -0.24602,-0.861072 0,-1.792436 0.228447,-2.57443 0.237235,-0.79078 0.667771,-0.79078 0.27238,0 0.465682,0.149369 0.202088,0.14937 0.333885,0.377818 0.02636,-0.228448 0.04393,-0.325099 0.02636,-0.105437 0.09665,-0.105437 0.08786,0 0.140583,0.07908 0.0615,0.07908 0.0615,0.193302 0,0.237234 -0.01757,0.64141 -0.01757,0.395391 -0.04393,0.861073 -0.01757,0.465681 -0.03515,0.957723 -0.01757,0.492041 -0.01757,0.905004 0,0.289953 0.07029,0.386604 0.07908,0.08786 0.158156,0.08786 0.14937,0 0.289953,-0.307525 0.140583,-0.307526 0.254807,-0.799567 0.12301,-0.492042 0.228448,-1.107093 0.105437,-0.623838 0.193302,-1.247676 0.01757,-0.14937 0.06151,-0.07908 0.04393,0.0615 0.03515,0.158156 -0.07029,0.597479 -0.166943,1.265249 -0.09665,0.658984 -0.228448,1.203744 -0.131796,0.544759 -0.307525,0.905004 -0.175729,0.351458 -0.404177,0.351458 z m -2.822098,-0.342672 q 0.14937,0 0.289953,-0.307525 0.140583,-0.307526 0.254807,-0.799567 0.123011,-0.492042 0.228448,-1.107093 0.105437,-0.623838 0.193302,-1.247676 0.01757,-0.14937 0.0615,-0.07908 0.04393,0.0615 0.03515,0.158156 -0.07029,0.597479 -0.166943,1.265249 -0.09665,0.658984 -0.228447,1.203744 -0.131797,0.544759 -0.307526,0.905004 -0.175729,0.351458 -0.404177,0.351458 -0.254807,0 -0.404177,-0.202088 -0.140583,-0.210875 -0.140583,-0.439323 0,-0.289953 0.02636,-0.729275 0.03514,-0.439323 0.07029,-0.931364 0.03515,-0.492041 0.0615,-0.992869 0.03515,-0.509614 0.03515,-0.94015 -0.131797,0 -0.307526,0.0088 -0.175729,0 -0.316312,0 -0.01757,0.202089 -0.05272,0.465682 -0.02636,0.254807 -0.04393,0.430536 -0.0088,0.07029 -0.02636,0.09665 -0.0088,0.01757 -0.02636,0.01757 -0.02636,0 -0.05272,-0.01757 -0.01757,-0.01757 -0.0088,-0.06151 0.01757,-0.158156 0.04393,-0.404177 0.03514,-0.254807 0.06151,-0.527187 -0.03515,0 -0.06151,0 -0.02636,0 -0.04393,0 -0.210874,0 -0.27238,-0.08786 -0.0615,-0.08787 -0.0615,-0.14937 0,-0.03515 0.03515,-0.06151 0.03515,-0.02636 0.09665,-0.02636 0.0615,0 0.193302,0.0088 0.131797,0.0088 0.289953,0.02636 0.166942,0.0088 0.351458,0.03515 0.184515,0.01757 0.342671,0.04393 0.09665,0.01757 0.140584,0.06151 0.05272,0.04393 0.05272,0.175729 0,0.325098 -0.02636,0.799567 -0.02636,0.474468 -0.0615,0.975296 -0.03515,0.492041 -0.06151,0.957723 -0.02636,0.456895 -0.02636,0.755634 0,0.158157 0.0615,0.263594 0.07029,0.105437 0.175729,0.105437 z M 13.909672,26.19681 q 0.158156,0 0.316312,-0.263593 0.158156,-0.27238 0.281167,-0.650197 0.131796,-0.386604 0.219661,-0.81714 0.08786,-0.439323 0.114224,-0.773208 l 0.0088,-0.228448 q -0.0088,-0.360244 -0.193302,-0.553546 -0.175729,-0.202088 -0.474468,-0.202088 -0.289953,0 -0.474468,0.615051 -0.175729,0.615052 -0.175729,1.968165 0,0.39539 0.07908,0.650197 0.08786,0.254807 0.298739,0.254807 z m 0.254807,2.170254 q -0.307526,0 -0.54476,-0.14937 -0.237234,-0.140583 -0.237234,-0.430536 0,-0.175729 0.114224,-0.333885 0.114224,-0.14937 0.307526,-0.307526 0.193301,-0.158156 0.448109,-0.333885 0.254807,-0.175729 0.527187,-0.39539 0,-0.254807 0,-0.553547 0.0088,-0.298739 0.0088,-0.694129 l 0.0088,-0.263594 q -0.07029,0.316312 -0.158156,0.606265 -0.07908,0.289953 -0.184515,0.509614 -0.105438,0.219662 -0.237234,0.351458 -0.131797,0.131797 -0.289953,0.131797 -0.27238,0 -0.509614,-0.333885 -0.228448,-0.342671 -0.228448,-0.896218 0,-1.511269 0.228448,-2.170253 0.237234,-0.66777 0.66777,-0.66777 0.27238,0 0.465682,0.140583 0.193302,0.140583 0.307526,0.351458 0,-0.263594 0.01757,-0.333885 0.02636,-0.07029 0.06151,-0.07029 0.07029,0 0.09665,0.0615 0.03514,0.05272 0.04393,0.140584 0.02636,0.448109 0.01757,1.282821 0,0.825927 -0.0088,2.073603 0.386604,-0.579906 0.658984,-1.221317 0.27238,-0.650197 0.412963,-1.678212 0.0088,-0.03515 0.01757,-0.0615 0.0088,-0.03515 0.01757,-0.03515 0.02636,0 0.04393,0.04393 0.01757,0.03515 0.01757,0.08787 0,0.219661 -0.07908,0.615051 -0.07908,0.386604 -0.228448,0.834713 -0.149369,0.439323 -0.36903,0.896218 -0.210875,0.448109 -0.492042,0.773208 0,0.07908 0,0.158156 0,0.07908 0,0.158156 0,0.764421 -0.184515,1.238889 -0.175729,0.474469 -0.738062,0.474469 z m 0.02636,-0.27238 q 0.29874,0 0.439323,-0.342672 0.140583,-0.342671 0.140583,-0.834713 0,-0.07029 0,-0.140583 0,-0.07908 0,-0.149369 -0.500828,0.386603 -0.799567,0.650197 -0.298739,0.263593 -0.298739,0.483255 0,0.131796 0.114224,0.228447 0.114223,0.105438 0.404176,0.105438 z M 11.5895,26.723997 q 0.27238,0 0.42175,-0.36903 0.158156,-0.369031 0.219661,-1.028015 -0.05272,-0.03515 -0.07908,-0.07908 -0.01757,-0.04393 -0.01757,-0.09665 0,-0.06151 0.02636,-0.12301 0.02636,-0.06151 0.08787,-0.09665 0.0088,-0.14937 0.0088,-0.316313 0.0088,-0.166942 0.0088,-0.342671 0,-0.948937 -0.158156,-1.282822 -0.14937,-0.333885 -0.42175,-0.333885 -0.210875,0 -0.351458,0.193302 -0.131797,0.193302 -0.210875,0.535973 -0.07908,0.333885 -0.114224,0.808354 -0.02636,0.474468 -0.02636,1.028014 0,0.658984 0.14937,1.080734 0.149369,0.421749 0.456895,0.421749 z m 0.03515,0.254808 q -0.553546,0 -0.764421,-0.518401 -0.202089,-0.518401 -0.202089,-1.405832 0,-0.535974 0.04393,-1.010442 0.05272,-0.483255 0.166942,-0.843499 0.123011,-0.360245 0.316312,-0.571119 0.202089,-0.210875 0.500828,-0.210875 0.448109,0 0.66777,0.465682 0.219662,0.456895 0.219662,1.60792 0,0.166943 -0.0088,0.333885 0,0.158156 -0.0088,0.307526 0.202088,-0.05272 0.351458,-0.237234 0.149369,-0.184516 0.254807,-0.448109 0.114224,-0.263594 0.175729,-0.588692 0.07029,-0.333885 0.105437,-0.676557 0.0088,-0.03515 0.0088,-0.05272 0.0088,-0.02636 0.01757,-0.02636 0.03514,0 0.05272,0.04393 0.02636,0.03515 0.01757,0.105438 -0.02636,0.289952 -0.08786,0.650197 -0.06151,0.351458 -0.184516,0.66777 -0.114224,0.307526 -0.298739,0.535974 -0.175729,0.228447 -0.430536,0.263593 -0.07029,0.773208 -0.29874,1.194957 -0.228447,0.412964 -0.615051,0.412964 z M 9.1516725,26.065014 q 0,-1.344327 0.01757,-2.231759 0.01757,-0.887431 0.04393,-1.405832 -0.05272,0 -0.09665,0 -0.03515,0 -0.06151,0 -0.09665,0 -0.184515,-0.04393 -0.08787,-0.05272 -0.08787,-0.114224 0,-0.03515 0.131797,-0.06151 0.131797,-0.02636 0.316312,-0.03515 0.03515,-0.377817 0.07029,-0.527187 0.03515,-0.158156 0.07908,-0.158156 0.06151,0 0.114224,0.08787 0.05272,0.07908 0.05272,0.158156 0,0.08786 0,0.202088 0,0.105437 -0.0088,0.219661 0.140583,-0.0088 0.254807,-0.0088 0.114224,0 0.175729,0 0.1405825,0 0.2108745,0.07029 0.07029,0.06151 0.07029,0.09665 0,0.01757 -0.01757,0.03515 -0.0088,0.01757 -0.02636,0.02636 -0.03515,0.0088 -0.2460195,0.01757 -0.202089,0.0088 -0.42175,0.01757 -0.0088,0.54476 -0.02636,1.423405 -0.01757,0.869859 -0.01757,2.187826 0,0.377818 0.07908,0.500828 0.07908,0.12301 0.158156,0.12301 0.228448,0 0.4041765,-0.307525 0.184515,-0.307526 0.325098,-0.799567 0.140583,-0.492042 0.246021,-1.107093 0.114224,-0.623838 0.202088,-1.247676 0.01757,-0.14937 0.06151,-0.07908 0.04393,0.0615 0.03515,0.158156 -0.07029,0.597479 -0.175729,1.265249 -0.09665,0.658984 -0.254807,1.203744 -0.14937,0.544759 -0.369031,0.905004 -0.2196605,0.351458 -0.5183995,0.351458 -0.228448,0 -0.386604,-0.237234 -0.14937,-0.237234 -0.14937,-0.685343 z m -1.766626,0.658983 q 0.27238,0 0.42175,-0.36903 0.158156,-0.369031 0.219661,-1.028015 -0.05272,-0.03515 -0.07908,-0.07908 -0.01757,-0.04393 -0.01757,-0.09665 0,-0.06151 0.02636,-0.12301 0.02636,-0.06151 0.08787,-0.09665 0.0088,-0.14937 0.0088,-0.316313 0.0088,-0.166942 0.0088,-0.342671 0,-0.948937 -0.158156,-1.282822 -0.14937,-0.333885 -0.42175,-0.333885 -0.210875,0 -0.351458,0.193302 -0.131797,0.193302 -0.210875,0.535973 -0.07908,0.333885 -0.114224,0.808354 -0.02636,0.474468 -0.02636,1.028014 0,0.658984 0.14937,1.080734 0.149369,0.421749 0.456895,0.421749 z m 0.03515,0.254808 q -0.553546,0 -0.764421,-0.518401 -0.202089,-0.518401 -0.202089,-1.405832 0,-0.535974 0.04393,-1.010442 0.05272,-0.483255 0.166942,-0.843499 0.123011,-0.360245 0.316312,-0.571119 0.202089,-0.210875 0.500828,-0.210875 0.448109,0 0.66777,0.465682 0.219662,0.456895 0.219662,1.60792 0,0.166943 -0.0088,0.333885 0,0.158156 -0.0088,0.307526 0.202088,-0.05272 0.351458,-0.237234 0.149369,-0.184516 0.254807,-0.448109 0.114224,-0.263594 0.175729,-0.588692 0.07029,-0.333885 0.105437,-0.676557 0.0088,-0.03515 0.0088,-0.05272 0.0088,-0.02636 0.01757,-0.02636 0.03514,0 0.05272,0.04393 0.02636,0.03515 0.01757,0.105438 -0.02636,0.289952 -0.08786,0.650197 -0.0615,0.351458 -0.184516,0.66777 -0.114224,0.307526 -0.298739,0.535974 -0.175729,0.228447 -0.430536,0.263593 -0.07029,0.773208 -0.298739,1.194957 -0.228448,0.412964 -0.615052,0.412964 z m -3.726145,-6.414109 q 0.0088,-0.07029 0.02636,-0.105438 0.02636,-0.03514 0.06151,-0.04393 0.03515,0 0.07908,0.04393 0.05272,0.04393 0.05272,0.158156 0,0.896218 -0.0088,1.713358 0,0.81714 -0.0088,1.502483 -0.0088,0.685343 -0.01757,1.230103 -0.0088,0.54476 -0.01757,0.896218 0.08787,-0.658984 0.210875,-1.291608 0.12301,-0.641411 0.289953,-1.133452 0.166942,-0.492041 0.386604,-0.790781 0.228447,-0.307525 0.527187,-0.307525 0.237234,0 0.325098,0.193302 0.09665,0.193301 0.09665,0.509614 0,0.27238 -0.03515,0.632624 -0.02636,0.351458 -0.0615,0.738062 -0.03515,0.377817 -0.07029,0.773208 -0.02636,0.39539 -0.02636,0.738061 0,0.377818 0.07029,0.500828 0.07908,0.12301 0.158156,0.12301 0.14937,0 0.289953,-0.307525 0.140583,-0.307526 0.254807,-0.799567 0.12301,-0.492042 0.228448,-1.107093 0.105437,-0.623838 0.193302,-1.247676 0.0088,-0.03515 0.01757,-0.0615 0.0088,-0.03515 0.01757,-0.03515 0.02636,0 0.04393,0.04393 0.01757,0.03515 0.01757,0.08787 0,0.105437 -0.07029,0.711702 -0.07029,0.597479 -0.210875,1.282822 -0.131797,0.676557 -0.342671,1.230103 -0.210875,0.54476 -0.483255,0.54476 -0.228448,0 -0.386604,-0.237234 -0.14937,-0.237234 -0.14937,-0.685343 0,-0.790781 0.09665,-1.581561 0.105438,-0.799567 0.105438,-1.432192 0,-0.149369 -0.03515,-0.228448 -0.03515,-0.07908 -0.12301,-0.07908 -0.210875,0 -0.42175,0.42175 -0.202088,0.42175 -0.369031,1.036801 -0.166943,0.615052 -0.289953,1.326754 -0.114224,0.711703 -0.158156,1.282822 -0.0088,0.05272 -0.05272,0.08786 -0.04393,0.02636 -0.09665,0.02636 -0.08786,0 -0.158156,-0.07908 -0.06151,-0.07908 -0.07029,-0.263594 -0.0088,-0.27238 -0.0088,-1.142238 0,-0.878645 0.01757,-1.862728 0.0088,-0.984082 0.03515,-1.853941 0.02636,-0.878645 0.07029,-1.159811 z m -1.806028,6.150515 q 0.289953,0 0.465682,-0.738062 0.184515,-0.746848 0.184515,-2.416274 0,-0.369031 -0.105437,-0.588692 -0.105437,-0.228448 -0.281166,-0.228448 -0.175729,0 -0.342672,0.369031 -0.166943,0.360245 -0.298739,0.869859 -0.131797,0.500828 -0.210875,1.045588 -0.07908,0.535973 -0.07908,0.878645 v 0.04393 q 0.0088,0.369031 0.184515,0.571119 0.184516,0.193302 0.483255,0.193302 z m -0.623838,1.186171 q 0,0.24602 -0.03515,0.325098 -0.03515,0.08787 -0.09665,0.08787 -0.09665,0 -0.15815601,-0.105437 -0.06151,-0.105438 -0.07029,-0.333886 0,-0.06151 -0.0088,-0.237234 0,-0.175729 0,-0.430536 0,-0.254807 0,-0.579905 0,-0.325099 0,-0.676557 0,-0.377818 0,-0.781994 0.0088,-0.404177 0.0088,-0.790781 0.0088,-0.39539 0.01757,-0.773207 0.0088,-0.377818 0.01757,-0.685344 0.0088,-0.24602 0.03515,-0.316312 0.03515,-0.07908 0.07029,-0.07908 0.04393,0 0.114224,0.105438 0.07029,0.105437 0.07029,0.316312 0,0.254807 0,0.711702 0,0.456896 -0.0088,1.019229 0.07029,-0.42175 0.158156,-0.825927 0.08786,-0.404177 0.193302,-0.711702 0.114224,-0.316313 0.254807,-0.509614 0.14937,-0.193302 0.333885,-0.193302 0.27238,0 0.492041,0.333885 0.228448,0.325098 0.228448,0.852285 0,1.098307 -0.09665,1.818796 -0.08787,0.711702 -0.254807,1.08952 0.219661,-0.210875 0.412963,-0.57112 0.202088,-0.360244 0.360245,-0.799567 0.166942,-0.448109 0.289952,-0.957723 0.131797,-0.509614 0.202089,-1.019228 0.01757,-0.14937 0.0615,-0.07908 0.04393,0.0615 0.03515,0.158156 -0.07029,0.606265 -0.219662,1.274035 -0.140583,0.658984 -0.377817,1.203744 -0.228448,0.54476 -0.553546,0.896218 -0.316313,0.351458 -0.729276,0.351458 -0.0088,0 -0.01757,0 0,0 -0.0088,0 h -0.0088 q -0.246021,0 -0.430537,-0.12301 -0.184515,-0.131797 -0.316312,-0.325099 0.01757,0.42175 0.02636,0.729275 0.0088,0.307526 0.0088,0.632625 z" />
    </g>
    <g
       aria-label="Nicolas"
       transform="matrix(1.2266983,0,0,0.81519636,-17.069095,-38.370197)"
       id="text12-5-4"
       style="font-style:normal;font-weight:normal;font-size:12.9825px;line-height:1.25;font-family:sans-serif;fill:#000000;fill-opacity:1;stroke:none;stroke-width:0.324564">
      <path
         id="path947"
         style="font-style:normal;font-variant:normal;font-weight:300;font-stretch:normal;font-size:12.9825px;font-family:Coniferous;-inkscape-font-specification:'Coniferous Light';fill:#663399;fill-opacity:1;stroke-width:0.324564"
         d="m 38.149789,55.643219 q 0,0.98667 -0.324562,1.518952 -0.31158,0.532283 -0.88281,0.532283 -0.506318,0 -0.856845,-0.389475 -0.350528,-0.402458 -0.46737,-0.999653 -0.01298,-0.09088 0.02597,-0.15579 0.02596,-0.06491 0.07789,0.01298 0.324562,0.558247 0.597195,0.817897 0.272632,0.25965 0.597195,0.25965 0.298597,0 0.532282,-0.350527 0.233685,-0.350528 0.233685,-1.103513 0,-0.83088 -0.129825,-1.544917 -0.129825,-0.714038 -0.31158,-1.272285 -0.168772,-0.57123 -0.36351,-0.98667 -0.181755,-0.41544 -0.298597,-0.649125 -0.01298,0.324562 -0.07789,0.752985 -0.06491,0.41544 -0.09088,0.688072 -0.01298,0.10386 -0.03895,0.142808 -0.01298,0.02596 -0.03895,0.02596 -0.03895,0 -0.07789,-0.02596 -0.02597,-0.02596 -0.01298,-0.09088 0.03895,-0.298597 0.10386,-0.791932 0.06491,-0.493335 0.116842,-0.98667 0,-0.05193 0.03895,-0.0779 0.05193,-0.03895 0.09088,-0.03895 0.05193,0 0.129825,0.10386 0.07789,0.09088 0.168773,0.233685 0.480352,0.817898 0.869827,1.947375 0.389475,1.116495 0.389475,2.427728 z m -4.961545,-4.271243 q -0.428423,0 -0.701055,1.103513 -0.25965,1.09053 -0.25965,3.557205 0,0.506317 0.116842,0.856845 0.116843,0.350527 0.389475,0.350527 0.272633,0 0.532283,-0.532282 0.25965,-0.545265 0.454387,-1.29825 0.20772,-0.752985 0.324563,-1.5579 0.129825,-0.804915 0.129825,-1.337198 0,-0.545265 -0.272633,-0.843862 -0.272632,-0.298598 -0.714037,-0.298598 z m 1.648777,6.322478 q -0.324562,0 -0.558247,-0.31158 -0.233685,-0.31158 -0.220703,-0.88281 l 0.05193,-1.778603 q -0.09088,0.584213 -0.220702,1.129478 -0.116843,0.532282 -0.25965,0.947722 -0.142808,0.402458 -0.337545,0.649125 -0.181755,0.246668 -0.41544,0.246668 -0.428423,0 -0.791933,-0.480353 -0.36351,-0.493335 -0.36351,-1.272285 0,-2.64843 0.337545,-3.803872 0.350528,-1.168425 0.98667,-1.168425 0.402458,0 0.688073,0.220702 0.298597,0.220703 0.493335,0.558248 0.03895,-0.337545 0.06491,-0.480353 0.03895,-0.15579 0.142808,-0.15579 0.129825,0 0.20772,0.116843 0.09088,0.116842 0.09088,0.285615 0,0.350527 -0.02596,0.947722 -0.02597,0.584213 -0.06491,1.272285 -0.02596,0.688073 -0.05193,1.415093 -0.02596,0.72702 -0.02596,1.337197 0,0.428423 0.10386,0.57123 0.116842,0.129825 0.233685,0.129825 0.220702,0 0.428422,-0.454387 0.20772,-0.454388 0.376493,-1.181408 0.181755,-0.72702 0.337545,-1.635795 0.15579,-0.921757 0.285615,-1.843515 0.02597,-0.220702 0.09088,-0.116842 0.06491,0.09088 0.05193,0.233685 -0.10386,0.88281 -0.246667,1.86948 -0.142808,0.973687 -0.337545,1.778602 -0.194738,0.804915 -0.454388,1.337198 -0.25965,0.5193 -0.597195,0.5193 z m -5.169267,-4.401068 q 0,0.129825 0,0.25965 0,0.129825 0,0.25965 0.532283,-1.155442 0.817898,-2.28492 0.285615,-1.14246 0.285615,-1.960357 0,-0.740003 -0.116843,-0.973688 -0.10386,-0.246667 -0.246667,-0.246667 -0.168773,0 -0.31158,0.389475 -0.129825,0.376492 -0.233685,1.0386 -0.09088,0.649125 -0.142808,1.5579 -0.05193,0.908775 -0.05193,1.960357 z m 0.908775,3.89475 q 0.246668,0 0.46737,-0.454387 0.220703,-0.454388 0.41544,-1.181408 0.20772,-0.72702 0.36351,-1.635795 0.168773,-0.921757 0.298598,-1.843515 0.02596,-0.220702 0.09088,-0.116842 0.06491,0.09088 0.05193,0.233685 -0.10386,0.88281 -0.25965,1.86948 -0.142807,0.973687 -0.36351,1.778602 -0.20772,0.804915 -0.493335,1.337198 -0.272632,0.5193 -0.636142,0.5193 -0.714038,0 -1.0386,-1.168425 -0.324563,-1.181408 -0.31158,-3.855803 0,-1.051582 0.0779,-1.92141 0.09088,-0.869827 0.246667,-1.480005 0.168773,-0.610177 0.402458,-0.947722 0.233685,-0.337545 0.5193,-0.337545 0.389475,0 0.57123,0.376492 0.181755,0.36351 0.181755,1.051583 0,1.29825 -0.428423,2.49264 -0.41544,1.19439 -1.051582,2.271937 0.02596,1.544918 0.233685,2.28492 0.20772,0.72702 0.662107,0.72702 z m -3.830649,0.116843 q 0.402458,0 0.62316,-0.545265 0.233685,-0.545265 0.324563,-1.518953 -0.07789,-0.05193 -0.116843,-0.116842 -0.02596,-0.06491 -0.02596,-0.142808 0,-0.09088 0.03895,-0.181755 0.03895,-0.09088 0.129825,-0.142807 0.01298,-0.220703 0.01298,-0.46737 0.01298,-0.246668 0.01298,-0.506318 0,-1.40211 -0.233685,-1.895445 -0.220703,-0.493335 -0.62316,-0.493335 -0.31158,0 -0.5193,0.285615 -0.194738,0.285615 -0.31158,0.791933 -0.116843,0.493335 -0.168773,1.19439 -0.03895,0.701055 -0.03895,1.518952 0,0.973688 0.220702,1.596848 0.220703,0.62316 0.67509,0.62316 z m 0.05193,0.376492 q -0.817897,0 -1.129477,-0.765967 -0.298598,-0.765968 -0.298598,-2.0772 0,-0.791933 0.06491,-1.492988 0.0779,-0.714037 0.246667,-1.24632 0.181755,-0.532282 0.46737,-0.843862 0.298598,-0.31158 0.740003,-0.31158 0.662107,0 0.98667,0.688072 0.324562,0.67509 0.324562,2.375798 0,0.246667 -0.01298,0.493335 0,0.233685 -0.01298,0.454387 0.298598,-0.07789 0.5193,-0.350527 0.220703,-0.272633 0.376493,-0.662108 0.168772,-0.389475 0.25965,-0.869827 0.10386,-0.493335 0.15579,-0.999653 0.01298,-0.05193 0.01298,-0.07789 0.01298,-0.03895 0.02597,-0.03895 0.05193,0 0.07789,0.06491 0.03895,0.05193 0.02596,0.15579 -0.03895,0.428423 -0.129825,0.960705 -0.09088,0.5193 -0.272632,0.98667 -0.168773,0.454388 -0.441405,0.791933 -0.25965,0.337545 -0.636143,0.389475 -0.10386,1.14246 -0.441405,1.76562 -0.337545,0.610177 -0.908775,0.610177 z m -3.573433,-0.441405 q 0.389475,0 0.77895,-0.454387 0.402458,-0.454388 0.740003,-1.168425 0.337545,-0.72702 0.597195,-1.66176 0.25965,-0.93474 0.389475,-1.882463 0.01298,-0.05193 0.02596,-0.09088 0.01298,-0.05193 0.02596,-0.05193 0.03895,0 0.06491,0.06491 0.02597,0.05193 0.02597,0.129825 0,0.15579 -0.168772,1.051583 -0.15579,0.88281 -0.480353,1.882462 -0.31158,0.999653 -0.791932,1.81755 -0.480353,0.804915 -1.116495,0.804915 -0.88281,0 -1.24632,-0.545265 -0.36351,-0.545265 -0.36351,-1.66176 0,-2.362815 0.350527,-3.440362 0.36351,-1.09053 1.103513,-1.09053 0.558247,0 0.843862,0.57123 0.285615,0.558247 0.285615,2.064217 0,0.168773 -0.116842,0.298598 -0.116843,0.116842 -0.20772,0.116842 -0.06491,0 -0.116843,-0.03895 -0.03895,-0.05193 -0.03895,-0.15579 0,-0.72702 -0.02596,-1.207373 -0.02596,-0.480352 -0.10386,-0.752985 -0.06491,-0.272632 -0.181755,-0.376492 -0.116843,-0.10386 -0.31158,-0.10386 -0.480353,0 -0.72702,0.908775 -0.233685,0.908775 -0.233685,3.180712 0,0.999653 0.298597,1.40211 0.298598,0.389475 0.701055,0.389475 z m -2.837082,-7.244235 q -0.168772,0 -0.272632,-0.142807 -0.09088,-0.15579 -0.09088,-0.337545 0,-0.246668 0.116843,-0.402458 0.116842,-0.15579 0.285615,-0.15579 0.194737,0 0.272632,0.15579 0.07789,0.15579 0.07789,0.298598 0,0.272632 -0.116842,0.428422 -0.10386,0.15579 -0.272633,0.15579 z m 0.389475,7.192305 q 0.20772,0 0.389475,-0.454387 0.181755,-0.454388 0.337545,-1.181408 0.168773,-0.72702 0.31158,-1.635795 0.142808,-0.921757 0.272633,-1.843515 0.01298,-0.06491 0.02596,-0.10386 0.01298,-0.03895 0.02596,-0.03895 0.05193,0 0.0779,0.07789 0.02596,0.07789 0.01298,0.181755 -0.10386,0.88281 -0.233685,1.86948 -0.129825,0.973687 -0.31158,1.778602 -0.181755,0.804915 -0.428422,1.337198 -0.233685,0.5193 -0.545265,0.5193 -0.337545,0 -0.57123,-0.350528 -0.220703,-0.350527 -0.220703,-1.012635 0,-0.246667 0.01298,-0.973687 0.02596,-0.740003 0.05193,-1.5579 0.02597,-0.817898 0.06491,-1.544918 0.05193,-0.740002 0.09088,-0.999652 0.01298,-0.10386 0.03895,-0.15579 0.03895,-0.05193 0.09088,-0.06491 0.05193,0 0.116842,0.06491 0.07789,0.06491 0.07789,0.233685 0,1.168425 -0.01298,1.999305 0,0.83088 0,1.40211 0,0.57123 -0.01298,0.93474 0,0.36351 0,0.597195 0,0.558247 0.10386,0.740002 0.116843,0.181755 0.233685,0.181755 z m -6.091835,0.07789 q -0.01298,-0.25965 -0.01298,-0.791932 0,-0.545265 0,-1.24632 0,-0.791933 0.01298,-1.739655 0.01298,-0.947723 0.02597,-1.804568 0.02596,-0.856845 0.05193,-1.544917 0.02597,-0.688073 0.05193,-0.973688 0.01298,-0.10386 0.03895,-0.15579 0.02596,-0.06491 0.116843,-0.06491 0.09088,0 0.194737,0.06491 0.10386,0.05193 0.168773,0.194738 0.194737,0.41544 0.558247,1.363162 0.36351,0.93474 0.765968,2.064218 0.41544,1.129477 0.83088,2.323867 0.428422,1.181408 0.740002,2.103165 -0.03895,-1.415092 -0.06491,-2.765272 -0.01298,-1.363163 -0.02596,-2.44071 0,-1.09053 -0.01298,-1.81755 0,-0.72702 0,-0.908775 0,-0.129825 0.02596,-0.181755 0.02596,-0.05193 0.10386,-0.05193 0.10386,0 0.20772,0.10386 0.116843,0.10386 0.129825,0.31158 0.01298,0.246667 0.01298,0.72702 0.01298,0.46737 0.01298,0.921757 0,0.804915 -0.01298,1.830533 -0.01298,1.025617 -0.03895,1.97334 -0.01298,0.947722 -0.03895,1.687725 -0.02596,0.72702 -0.03895,0.960705 -0.01298,0.116842 -0.05193,0.181755 -0.03895,0.06491 -0.10386,0.06491 -0.09088,0 -0.220702,-0.05193 -0.129825,-0.03895 -0.181755,-0.181755 -0.20772,-0.5193 -0.558248,-1.467022 -0.350527,-0.947723 -0.752985,-2.051235 -0.402457,-1.116495 -0.817897,-2.271938 -0.402458,-1.155442 -0.714038,-2.103165 0.01298,0.856845 0.02597,2.0772 0.02596,1.220355 0.03895,2.401763 0.01298,1.168425 0.02596,2.116147 0.01298,0.93474 0.01298,1.24632 0,0.129825 -0.03895,0.194738 -0.03895,0.0779 -0.10386,0.0779 -0.07789,0 -0.220703,-0.09088 -0.129825,-0.09088 -0.142807,-0.285616 z" />
    </g>
  </g>
</svg>
