<svg xmlns="http://www.w3.org/2000/svg" viewBox="0 0 172.8 113.2" width="1.83rem" height="1.2rem"><path fill="#fff" d="M140.3 40.3A57.8 57.8 0 0 0 85.5 0a56.8 56.8 0 0 0-50.4 29.9 42.8 42.8 0 0 0-10.3 81l1 .5h.2V99.2a32 32 0 0 1 13.3-59l3-.3 1.3-2.7a46 46 0 0 1 41.9-26.4 46.8 46.8 0 0 1 45.2 35.8l1 4.1 4.2.1a26.6 26.6 0 0 1 26 26.5 24 24 0 0 1-15.7 22.5v11.6l.7-.3a35.4 35.4 0 0 0 25.8-33.8 37.5 37.5 0 0 0-32.6-37Z"/><path fill="#fff" d="m64.6 110 2.3 2.4a.5.5 0 0 1-.3.8H47.8a8.5 8.5 0 0 1-8.5-8.5V68a.5.5 0 0 0-.5-.4h-4a.5.5 0 0 1-.4-.8l16-16a.5.5 0 0 1 .6 0l16 16a.5.5 0 0 1-.4.8h-4a.5.5 0 0 0-.5.4V104a8.5 8.5 0 0 0 2.5 6Zm35.2 0 2.3 2.4a.5.5 0 0 1-.3.8H83a8.5 8.5 0 0 1-8.5-8.5V77.3a.5.5 0 0 0-.5-.5h-4a.5.5 0 0 1-.3-.8l15.8-15.9a.5.5 0 0 1 .7 0l16 15.9a.5.5 0 0 1-.4.8h-4a.5.5 0 0 0-.5.5V104a8.5 8.5 0 0 0 2.5 6Zm35.2 0 2.4 2.4a.5.5 0 0 1-.4.8h-18.8a8.5 8.5 0 0 1-8.5-8.5V86.5a.5.5 0 0 0-.5-.5h-4a.5.5 0 0 1-.4-.8l16-16a.5.5 0 0 1 .6 0l16 16a.5.5 0 0 1-.4.8h-4a.5.5 0 0 0-.6.5V104a8.5 8.5 0 0 0 2.6 6Z"/></svg>