<svg xmlns="http://www.w3.org/2000/svg" preserveAspectRatio="xMidYMid" viewBox="0 0 256 167.5" width="1.83rem" height="1.2rem"><path fill="#0071ce" d="M218.6 161.6a7.8 7.8 0 0 1-2.4-15.1 34.4 34.4 0 0 0 24.3-33A35 35 0 0 0 201 79l-7.6 1-1-7.6a66.9 66.9 0 0 0-65.8-56.9A66.2 66.2 0 0 0 65 57l-2 4.7-5 .1a43.6 43.6 0 0 0-17.3 83.1 7.8 7.8 0 0 1-6.4 14.1A59.2 59.2 0 0 1 52.8 46.5 81.6 81.6 0 0 1 126.6 0c38 0 71.2 26.7 79.8 63.2a50.3 50.3 0 0 1 14.6 98c-.9.3-1.7.4-2.5.4z"/><path fill="#dc8327" d="M100 165a1.3 1.3 0 0 0-.5-.2 6 6 0 0 1-6.1-6V90.6h5.2c.8 0 1.3-.5 1.3-1.3 0-.5-.3-1-.8-1.2l-25-17.3a1.3 1.3 0 0 0-1.5 0L47.3 88.3a1.3 1.3 0 0 0 .8 2.3h5.2v68.2a8.8 8.8 0 0 0 8.8 8.7h37.4c.3 0 .6-.2.9-.4.2-.3.4-.6.4-1a1.3 1.3 0 0 0-.8-1.1z"/><path fill="#f4b21b" d="M154.1 165a1.3 1.3 0 0 0-.5-.2 6 6 0 0 1-6.1-6v-52.9h5.2a1.3 1.3 0 0 0 .5-2.5l-25-17.3a1.3 1.3 0 0 0-1.5 0l-25.3 17.4a1.3 1.3 0 0 0 .8 2.4h5.2v52.9a8.8 8.8 0 0 0 8.8 8.7h37.4c.3 0 .7-.2.9-.4.3-.3.4-.6.4-1a1.3 1.3 0 0 0-.8-1.1z"/><path fill="#f2d864" d="M208.4 165h-.1a1.3 1.3 0 0 0-.4-.2 6.1 6.1 0 0 1-6.2-6V121h5.3c.7 0 1.3-.5 1.3-1.3 0-.5-.3-1-.8-1.2l-25-17.3a1.3 1.3 0 0 0-1.6 0l-25.2 17.5a1.3 1.3 0 0 0 .7 2.3h5.2v37.7a8.8 8.8 0 0 0 8.8 8.7h37.4c.4 0 .7-.2 1-.4.2-.3.3-.6.3-1a1.3 1.3 0 0 0-.7-1.1z"/></svg>