<svg xmlns="http://www.w3.org/2000/svg" viewBox="0 0 209.5 94.7" width="2.65em" height="1.2em"><path fill="#f4801f" d="m143 93.4 1.1-3.7c1.3-4.4.8-8.5-1.3-11.5-2-2.7-5.3-4.3-9.3-4.5l-75.5-1a1.5 1.5 0 0 1-1.4-2 2 2 0 0 1 1.8-1.3l76.3-1c9-.5 18.8-7.8 22.2-16.8l4.4-11.3a2.7 2.7 0 0 0 .1-1 3.3 3.3 0 0 0 0-.5 49.7 49.7 0 0 0-95.5-5.2 22.4 22.4 0 0 0-35 23.4A31.7 31.7 0 0 0 .3 93.5a1.5 1.5 0 0 0 1.5 1.2h139.5a1.8 1.8 0 0 0 1.7-1.3Z"/><path fill="#f9ab41" d="m168.2 41.1-2 .1a.9.9 0 0 0-.4 0 1.2 1.2 0 0 0-.8.9l-3 10.2c-1.2 4.4-.8 8.5 1.4 11.5a11.7 11.7 0 0 0 9.2 4.6l16.1 1a1.4 1.4 0 0 1 1.2.6 1.5 1.5 0 0 1 .1 1.4 2 2 0 0 1-1.7 1.3l-16.7 1c-9.1.4-19 7.8-22.3 16.7l-1.3 3.2a.9.9 0 0 0 .8 1.2h57.7a1.6 1.6 0 0 0 1.5-1.2 41.3 41.3 0 0 0-39.8-52.4Z"/></svg>