<svg xmlns="http://www.w3.org/2000/svg" viewBox="0 0 172.8 113.18" width="1.83rem" height="1.2rem"><path fill="#fff" d="M140.25 40.27A57.84 57.84 0 0 0 85.56 0a56.75 56.75 0 0 0-50.32 29.9 42.79 42.79 0 0 0-10.33 81l1.08.5h.06V99.23a31.95 31.95 0 0 1 13.31-59l3-.31 1.31-2.74a46 46 0 0 1 41.89-26.33 46.83 46.83 0 0 1 45.19 35.79l1 4.11 4.23.07a26.56 26.56 0 0 1 26 26.44c0 10.11-5.83 18.36-15.72 22.55v11.55l.71-.24c15.95-5.21 25.86-18.19 25.86-33.86a37.49 37.49 0 0 0-32.58-36.99Z"/><path fill="#fff" d="m64.56 110 2.38 2.38a.47.47 0 0 1-.34.81H47.84a8.53 8.53 0 0 1-8.54-8.53V68.14a.47.47 0 0 0-.47-.47h-4.07a.48.48 0 0 1-.34-.81l15.93-15.92a.46.46 0 0 1 .67 0l15.92 15.92a.47.47 0 0 1-.34.81h-4.07a.47.47 0 0 0-.47.47V104a8.53 8.53 0 0 0 2.5 6Zm35.2 0 2.38 2.38a.47.47 0 0 1-.34.81H83a8.53 8.53 0 0 1-8.54-8.53V77.32a.47.47 0 0 0-.47-.48H70a.48.48 0 0 1-.34-.81l15.89-15.92a.46.46 0 0 1 .67 0L102.14 76a.47.47 0 0 1-.34.81h-4.07a.47.47 0 0 0-.47.48V104a8.53 8.53 0 0 0 2.5 6Zm35.24 0 2.38 2.38a.47.47 0 0 1-.33.81h-18.81a8.54 8.54 0 0 1-8.54-8.53V86.49a.47.47 0 0 0-.47-.47h-4.07a.47.47 0 0 1-.33-.81l15.92-15.93a.48.48 0 0 1 .67 0l15.92 15.93a.47.47 0 0 1-.34.79h-4.08a.47.47 0 0 0-.47.47V104a8.53 8.53 0 0 0 2.55 6Z"/></svg>