<svg xmlns="http://www.w3.org/2000/svg" xml:space="preserve" viewBox="0 0 180 150" width="1.44em" height="1.2em" aria-hidden="true"><path fill="#fff" stroke="#fff" stroke-miterlimit="10" stroke-width="4.15" d="M57.27 123.66c-1.33 0-2-1.78-2-5.35V30.02c0-1.7-.34-2.5-1.04-2.4-4.21 1.07-6.33 1.6-6.4 1.6-1.16.1-1.74-1.06-1.74-3.51v-7.67c0-2.12.64-3.32 1.91-3.6l21.1-5.42c.16-.05.4-.08.7-.08 1.18 0 1.76 1.25 1.76 3.76v105.62c0 3.58-.7 5.36-2.08 5.36zm54.64.17a30.2 30.2 0 0 1-5.55-.45 14.8 14.8 0 0 1-4.9-2 12.45 12.45 0 0 1-4.2-4.27c-1.1-1.81-2-4.35-2.68-7.6a56.95 56.95 0 0 1-1.03-11.59V56.95c0-1.07-.3-1.6-.88-1.6h-4.96c-1.33 0-2-1.28-2-3.83V47.2c0-2.6.67-3.91 2-3.91h4.96c.58 0 .88-.71.88-2.15l1.43-31.08c.17-2.82.85-4.23 2.08-4.23h8c1.33 0 2 1.4 2 4.23v31.08c0 1.44.31 2.15.96 2.15h10.2c1.33 0 2 1.3 2 3.91v4.32c0 2.55-.67 3.83-2 3.83h-10.23c-.37 0-.62.09-.75.28-.14.18-.2.62-.2 1.32v41.23c0 3.08.2 5.66.6 7.71.4 2.05.98 3.56 1.75 4.51.77.95 1.54 1.6 2.31 1.91a7.3 7.3 0 0 0 2.84.48h5.66c1.44 0 2.15 1 2.15 2.95v4.8c0 2.17-.77 3.27-2.31 3.27zm30.66 9.58c1.22 0 2.29-1 3.2-3 .9-2 1.36-4.83 1.36-8.51 0-.86-.53-3.81-1.6-8.87l-15.67-65.11c-.1-.75-.16-1.34-.16-1.77 0-1.91.4-2.88 1.2-2.88h9.67c.74 0 1.35.25 1.84.76.5.5.86 1.53 1.11 3.07l10.39 54.96c.2.64.34.97.4.97.2 0 .33-.3.33-.88l8.14-54.81c.2-1.6.55-2.67 1-3.24a2.1 2.1 0 0 1 1.71-.84h6.71c.9 0 1.37 1.04 1.37 3.11 0 .48-.06 1.1-.17 1.84l-14.22 74.07c-1.12 6.13-2.35 10.82-3.68 14.07-1.34 3.25-2.82 5.46-4.48 6.63-1.65 1.17-3.83 1.78-6.56 1.84h-.8c-4.32 0-7.24-1.14-8.78-3.44-.43-.48-.64-1.71-.64-3.68 0-3.95.64-5.92 1.91-5.92.1 0 1.07.27 2.88.8 1.84.56 3.01.83 3.54.83zm-125.5-9.6c-1.33 0-2-1.78-2-5.35V30.17c0-1.7-.34-2.5-1.04-2.4-4.21 1.07-6.34 1.6-6.4 1.6-1.17.1-1.74-1.07-1.74-3.51v-7.67c0-2.12.63-3.33 1.9-3.6l21.12-5.44c.16-.04.4-.07.71-.07 1.17 0 1.75 1.24 1.75 3.75v105.63c0 3.57-.7 5.35-2.08 5.35z"/></svg>