<svg xmlns="http://www.w3.org/2000/svg" viewBox="0 0 240 240" width="1.2em" height="1.2em"><path fill="#fc5a00" d="M118.5 233.5c-1.9-2-4.1-10.4-6.4-24.4a685 685 0 0 0-7.4-39.6 278.7 278.7 0 0 0-11.4-37.7 179 179 0 0 0-5.2-11.6l-2.3-4.6a98.4 98.4 0 0 0-9.4-15.9A57 57 0 0 1 70.7 38l1.1-1.8a58.8 58.8 0 0 1 25.4-23 51.5 51.5 0 0 1 17.3-4.7 55 55 0 0 1 35.6 8c1.7.9 3 1.8 3 2a70.1 70.1 0 0 1 13.6 13.4 60.2 60.2 0 0 1 9.4 21.4c.7 3 .8 4.3.8 11a53.7 53.7 0 0 1-12 35.2 153.2 153.2 0 0 0-15.3 28.1l-1.8 4.3c-4 9.7-9 26-12.2 40.3a666 666 0 0 0-6 31.7 574.9 574.9 0 0 1-3.5 20c-.9 4.2-2.6 8.5-3.7 9.7-1.5 1.4-2.5 1.4-3.9 0Zm8.7-148.8c2.3-.6 5.5-2.5 7.6-4.4a8.8 8.8 0 0 1 1.7-1.4 30 30 0 0 0 4.7-7.8c1.6-5.6 1.6-10 0-14.5-1.2-3.1-3.6-6.9-5-7.7-.6-.3-1.2-.9-1.2-1.2 0-.5-3.8-3.1-4.5-3.1a2 2 0 0 1-1-.5c-1.1-1-5.6-2-9.4-2-3 .1-4.2.3-6.1 1a26 26 0 0 0-8.7 5.5 21.4 21.4 0 0 0-4.6 6.6c-1.5 3-2.3 9.4-1.5 12l.7 3.2c.8 3.8 4.8 9 9.3 12 2.2 1.5 3 1.8 6.8 2.7 2 .5 8.7.3 11.2-.4Z"/></svg>