<svg width="1.2em" height="1.2em" viewBox="0 0 240 240" xmlns="http://www.w3.org/2000/svg"><path d="M118.52 233.5c-1.92-1.96-4.14-10.41-6.4-24.36-2.32-14.61-5.43-31.25-7.39-39.66-3.17-13.62-7.68-28.38-11.45-37.64a178.98 178.98 0 0 0-5.14-11.62l-2.29-4.61c-3.18-6.5-6.87-12.66-9.42-15.87-5.5-6.83-10.13-17.01-11.23-24.72-.23-1.63-.6-3.47-.78-4.1-.44-1.55-.44-12.21.04-12.5.18-.12.37-.85.37-1.6.03-3.98 3.54-15.27 5.9-18.88.2-.3.67-1.15 1.08-1.85 2.44-4.46 7.83-10.88 12.2-14.46 2.73-2.25 10-7.3 10.53-7.3.1 0 1.33-.53 2.7-1.15 4.98-2.29 12.4-4.36 15.7-4.4.74 0 1.48-.18 1.59-.36.3-.48 12.27-.48 12.56 0 .11.22.89.37 1.66.37 2.04 0 4.73.62 9.24 2.06 5.14 1.7 7.2 2.62 12.12 5.46 1.66.96 3.03 1.89 3.03 2.03 0 .15.67.67 1.52 1.11 2.21 1.25 9.38 8.6 12.04 12.32 4.36 6.17 7.1 12.4 9.39 21.48.74 2.91.85 4.24.85 10.88.04 8.45-.33 10.85-2.63 17.82-2.1 6.5-4.4 10.78-9.34 17.42-4.8 6.46-11.46 18.63-15.38 28.15l-1.8 4.32c-4.03 9.67-8.95 25.97-12.16 40.22a665.92 665.92 0 0 0-5.95 31.73 574.87 574.87 0 0 1-3.55 19.92c-.92 4.28-2.59 8.64-3.77 9.75-1.44 1.43-2.47 1.43-3.84.03Zm8.64-148.82c2.3-.59 5.58-2.5 7.62-4.39a8.76 8.76 0 0 1 1.77-1.4c.52 0 4.21-6.12 4.66-7.75 1.58-5.6 1.55-10.07-.04-14.5-1.15-3.17-3.55-6.9-5.03-7.7-.59-.34-1.1-.9-1.1-1.19 0-.52-3.85-3.17-4.59-3.17-.18 0-.63-.22-.92-.48-1.18-1.04-5.65-1.92-9.46-1.92-2.96.04-4.18.18-6.1.88-2.92 1.07-8.35 4.58-8.68 5.58-.15.4-.45.73-.67.73-.48.04-2.62 3.25-3.95 5.83-1.48 3.03-2.3 9.45-1.52 12.03.19.63.56 2.03.78 3.14.74 3.84 4.77 9.04 9.24 12.03 2.25 1.47 2.95 1.77 6.83 2.73 1.96.48 8.73.22 11.16-.45Z" fill="#fc5a00"/></svg>