<svg xmlns="http://www.w3.org/2000/svg" xmlns:xlink="http://www.w3.org/1999/xlink" viewBox="0 0 400 400" width="1.2em" height="1.2em"><defs><radialGradient id="b" cx="0%" cy="0%" r="100%" fx="0%" fy="0%"><stop offset="0%" stop-color="#20C6B7"/><stop offset="100%" stop-color="#4D9ABF"/></radialGradient></defs><path fill="url('#b')" d="m297 88-8 50c3 1 5 2 7 5l39-17-38-38zm-34 69c-.5-2-.5-2.9 0-5l-58-25c-4 7-14 11-22 9l-49 76 129-55zm-59-54c2 2 4 7 4 11l62 27c2-2 3-3 6-4l10-60-40-40-42 66zm-98-18-47 47 51 74c4-1 8-2 13 0l48-76c-5-5-7-13-5-20l-60-25zm160 190-12 80 75.9-75.9L276 268c-2 4-6 6-10 7zm36-121 98 41.9a9 9 0 0 0-.6-2.2c-1.5-4.9-6-9.3-14.4-17.7l-40-41-43 19zm-59 107-105.1-21c-.9 2-.9 2-1.9 3l94 136 8-8 16-96c-6-3-10-8-11-14zM74 282l23-36c-1-1-1-1-2-3l-43 18 22 21zm223-116c-3 5-8 7-13 7l-12 71c4 3 6 6 7 12l62 12 44-44a76.7 76.7 0 0 0 13-15l-101-43zM91 230 4.8 212.9c2.3 2.9 5.6 6.5 10.2 11.1l27 27 49-21zm35 21c-5 3-13 3-18 1l-25 40 94 93c8.4 8.4 12.1 12.5 17 14 4.1 1.3 8.4 1.3 12.5 0s7.3-3.9 13.5-10l-94-138zm142.5-82.5L140 223c1 2 1 3 1 5l104 21c3-6 9-9 15-9l11-70c-1 0-2-1-2.5-1.5zM94 218c2-4 1-3 5-6l-49-71-34.9 35.2C6.7 184.6 2.5 188.8.9 193.7c-.5 1.7-.8 3.5-.9 5.3l94 19zm79-118c5-5 14-6 21-4l43-68-13-12.9C215.6 6.7 211.4 2.5 206.5 1a20.8 20.8 0 0 0-12.6 0c-4.9 1.5-9.5 6.6-17.9 15l-60 59 57 25z"/></svg>